<svg xmlns="http://www.w3.org/2000/svg" xmlns:xlink="http://www.w3.org/1999/xlink" width="100" zoomAndPan="magnify" viewBox="0 0 375 374.999991" height="100" preserveAspectRatio="xMidYMid meet" version="1.0"><defs><clipPath id="id1"><path d="M 18 78.453125 L 356 78.453125 L 356 193 L 18 193 Z M 18 78.453125 " clip-rule="nonzero"/></clipPath><clipPath id="id2"><path d="M 3 214 L 371 214 L 371 296.703125 L 3 296.703125 Z M 3 214 " clip-rule="nonzero"/></clipPath></defs><g clip-path="url(#id1)"><path fill="rgb(14.509583%, 18.429565%, 24.308777%)" d="M 107.109375 157.457031 C 107.109375 161.964844 107.597656 165.621094 108.453125 168.300781 C 109.429688 170.980469 110.648438 173.902344 112.355469 177.070312 C 112.964844 178.042969 113.207031 179.019531 113.207031 179.871094 C 113.207031 181.089844 112.476562 182.308594 110.890625 183.527344 L 103.207031 188.640625 C 102.113281 189.375 101.011719 189.738281 100.035156 189.738281 C 98.816406 189.738281 97.597656 189.128906 96.378906 188.03125 C 94.671875 186.207031 93.207031 184.257812 91.988281 182.308594 C 90.769531 180.238281 89.546875 177.921875 88.207031 175.121094 C 78.695312 186.328125 66.746094 191.929688 52.351562 191.929688 C 42.109375 191.929688 33.9375 189.007812 27.960938 183.160156 C 21.988281 177.3125 18.9375 169.515625 18.9375 159.773438 C 18.9375 149.417969 22.597656 141.011719 30.035156 134.679688 C 37.472656 128.34375 47.355469 125.179688 59.914062 125.179688 C 64.0625 125.179688 68.328125 125.542969 72.839844 126.152344 C 77.355469 126.761719 81.988281 127.734375 86.867188 128.832031 L 86.867188 119.941406 C 86.867188 110.679688 84.914062 104.226562 81.132812 100.449219 C 77.230469 96.671875 70.644531 94.847656 61.253906 94.847656 C 56.988281 94.847656 52.597656 95.335938 48.085938 96.429688 C 43.574219 97.527344 39.183594 98.867188 34.914062 100.570312 C 32.960938 101.425781 31.5 101.910156 30.644531 102.15625 C 29.792969 102.398438 29.183594 102.519531 28.695312 102.519531 C 26.984375 102.519531 26.132812 101.300781 26.132812 98.742188 L 26.132812 92.773438 C 26.132812 90.828125 26.375 89.363281 26.984375 88.511719 C 27.597656 87.660156 28.695312 86.804688 30.402344 85.953125 C 34.671875 83.761719 39.792969 81.933594 45.769531 80.472656 C 51.742188 78.890625 58.085938 78.15625 64.792969 78.15625 C 79.304688 78.15625 89.914062 81.445312 96.746094 88.023438 C 103.453125 94.601562 106.867188 104.589844 106.867188 117.992188 L 106.867188 157.457031 Z M 57.597656 175.972656 C 61.621094 175.972656 65.769531 175.242188 70.160156 173.78125 C 74.550781 172.320312 78.453125 169.640625 81.742188 165.984375 C 83.695312 163.671875 85.160156 161.113281 85.890625 158.1875 C 86.621094 155.265625 87.109375 151.730469 87.109375 147.589844 L 87.109375 142.476562 C 83.574219 141.621094 79.792969 140.890625 75.890625 140.40625 C 71.988281 139.917969 68.207031 139.671875 64.425781 139.671875 C 56.257812 139.671875 50.28125 141.257812 46.257812 144.546875 C 42.230469 147.835938 40.28125 152.464844 40.28125 158.554688 C 40.28125 164.277344 41.742188 168.542969 44.792969 171.464844 C 47.71875 174.511719 51.988281 175.972656 57.597656 175.972656 Z M 155.535156 189.128906 C 153.332031 189.128906 151.867188 188.765625 150.886719 187.910156 C 149.921875 187.179688 149.058594 185.476562 148.324219 183.160156 L 119.671875 89 C 118.941406 86.5625 118.574219 84.980469 118.574219 84.125 C 118.574219 82.179688 119.550781 81.082031 121.5 81.082031 L 133.453125 81.082031 C 135.769531 81.082031 137.355469 81.445312 138.210938 82.300781 C 139.183594 83.03125 139.917969 84.734375 140.648438 87.050781 L 161.128906 167.691406 L 180.164062 87.050781 C 180.769531 84.613281 181.503906 83.03125 182.480469 82.300781 C 183.457031 81.570312 185.15625 81.082031 187.359375 81.082031 L 197.113281 81.082031 C 199.429688 81.082031 201.011719 81.449219 201.988281 82.300781 C 202.96875 83.03125 203.816406 84.738281 204.304688 87.050781 L 223.582031 168.664062 L 244.675781 87.050781 C 245.410156 84.613281 246.257812 83.03125 247.121094 82.300781 C 248.085938 81.570312 249.679688 81.082031 251.867188 81.082031 L 263.21875 81.082031 C 265.160156 81.082031 266.253906 82.058594 266.253906 84.128906 C 266.253906 84.738281 266.140625 85.347656 266.023438 86.078125 C 265.894531 86.808594 265.652344 87.78125 265.160156 89.121094 L 235.769531 183.285156 C 235.035156 185.71875 234.1875 187.304688 233.207031 188.035156 C 232.230469 188.765625 230.648438 189.253906 228.574219 189.253906 L 218.085938 189.253906 C 215.773438 189.253906 214.1875 188.886719 213.210938 188.035156 C 212.230469 187.183594 211.382812 185.597656 210.894531 183.164062 L 191.988281 104.59375 L 173.214844 183.039062 C 172.597656 185.476562 171.863281 187.058594 170.898438 187.910156 C 169.921875 188.765625 168.207031 189.128906 166.023438 189.128906 Z M 312.234375 192.417969 C 305.890625 192.417969 299.558594 191.6875 293.460938 190.226562 C 287.359375 188.765625 282.597656 187.179688 279.433594 185.351562 C 277.476562 184.257812 276.136719 183.039062 275.648438 181.941406 C 275.160156 180.847656 274.914062 179.628906 274.914062 178.53125 L 274.914062 172.320312 C 274.914062 169.761719 275.894531 168.542969 277.722656 168.542969 C 278.453125 168.542969 279.1875 168.664062 279.921875 168.910156 C 280.65625 169.152344 281.75 169.640625 282.972656 170.125 C 287.117188 171.953125 291.632812 173.414062 296.378906 174.390625 C 301.257812 175.363281 306.019531 175.851562 310.898438 175.851562 C 318.578125 175.851562 324.550781 174.511719 328.707031 171.832031 C 332.851562 169.152344 335.039062 165.253906 335.039062 160.257812 C 335.039062 156.847656 333.945312 154.046875 331.757812 151.730469 C 329.558594 149.417969 325.414062 147.347656 319.429688 145.398438 L 301.746094 139.917969 C 292.839844 137.113281 286.265625 132.972656 282.238281 127.492188 C 278.210938 122.132812 276.136719 116.164062 276.136719 109.828125 C 276.136719 104.714844 277.230469 100.207031 279.433594 96.308594 C 281.632812 92.410156 284.554688 89 288.210938 86.320312 C 291.878906 83.519531 296.019531 81.445312 300.898438 79.984375 C 305.773438 78.523438 310.898438 77.914062 316.261719 77.914062 C 318.9375 77.914062 321.746094 78.035156 324.433594 78.402344 C 327.242188 78.765625 329.800781 79.253906 332.363281 79.742188 C 334.792969 80.351562 337.109375 80.960938 339.3125 81.691406 C 341.511719 82.421875 343.210938 83.152344 344.433594 83.882812 C 346.144531 84.859375 347.367188 85.832031 348.085938 86.929688 C 348.820312 87.902344 349.195312 89.242188 349.195312 90.949219 L 349.195312 96.671875 C 349.195312 99.230469 348.214844 100.570312 346.390625 100.570312 C 345.410156 100.570312 343.828125 100.085938 341.757812 99.109375 C 334.792969 95.941406 326.996094 94.359375 318.335938 94.359375 C 311.386719 94.359375 305.890625 95.453125 302.121094 97.769531 C 298.335938 100.085938 296.378906 103.617188 296.378906 108.609375 C 296.378906 112.023438 297.605469 114.945312 300.050781 117.261719 C 302.480469 119.574219 307 121.886719 313.457031 123.960938 L 330.78125 129.441406 C 339.554688 132.242188 345.898438 136.140625 349.683594 141.132812 C 353.453125 146.128906 355.292969 151.855469 355.292969 158.1875 C 355.292969 163.425781 354.1875 168.175781 352.117188 172.320312 C 349.929688 176.460938 346.992188 180.113281 343.210938 183.039062 C 339.441406 186.082031 334.921875 188.277344 329.671875 189.859375 C 324.191406 191.566406 318.464844 192.417969 312.234375 192.417969 Z M 312.234375 192.417969 " fill-opacity="1" fill-rule="nonzero"/></g><g clip-path="url(#id2)"><path fill="rgb(100%, 59.999084%, 0%)" d="M 335.28125 251.613281 C 295.15625 281.214844 236.878906 296.9375 186.753906 296.9375 C 116.5 296.9375 53.207031 270.984375 5.40625 227.859375 C 1.621094 224.453125 5.035156 219.828125 9.546875 222.5 C 61.257812 252.476562 125.039062 270.625 191.007812 270.625 C 235.519531 270.625 284.4375 261.371094 329.421875 242.359375 C 336.140625 239.3125 341.867188 246.742188 335.277344 251.613281 Z M 352 232.617188 C 346.878906 226.035156 318.089844 229.453125 305.042969 231.035156 C 301.144531 231.523438 300.523438 228.101562 304.0625 225.546875 C 326.996094 209.472656 364.675781 214.101562 369.0625 219.460938 C 373.464844 224.941406 367.855469 262.578125 346.390625 280.613281 C 343.09375 283.414062 339.914062 281.949219 341.382812 278.296875 C 346.261719 266.242188 357.121094 239.066406 352 232.617188 Z M 352 232.617188 " fill-opacity="1" fill-rule="nonzero"/></g></svg>