<svg xmlns="http://www.w3.org/2000/svg" xmlns:xlink="http://www.w3.org/1999/xlink" width="100" zoomAndPan="magnify" viewBox="0 0 375 374.999991" height="100" preserveAspectRatio="xMidYMid meet" version="1.0"><defs><clipPath id="id1"><path d="M 12.417969 12.417969 L 362.667969 12.417969 L 362.667969 362.667969 L 12.417969 362.667969 Z M 12.417969 12.417969 " clip-rule="nonzero"/></clipPath></defs><g clip-path="url(#id1)"><path fill="rgb(33.729553%, 23.919678%, 48.629761%)" d="M 12.417969 317.503906 C 12.417969 342.445312 32.636719 362.667969 57.582031 362.667969 L 317.503906 362.667969 C 342.445312 362.667969 362.667969 342.445312 362.667969 317.503906 L 362.667969 57.582031 C 362.667969 32.636719 342.445312 12.417969 317.503906 12.417969 L 57.582031 12.417969 C 32.632812 12.417969 12.417969 32.636719 12.417969 57.582031 Z M 12.417969 317.503906 " fill-opacity="1" fill-rule="nonzero"/></g><path fill="rgb(100%, 100%, 100%)" d="M 157.664062 167.347656 L 157.664062 117.746094 L 201.320312 117.746094 C 205.480469 117.746094 209.488281 118.09375 213.347656 118.785156 C 217.207031 119.480469 220.625 120.714844 223.59375 122.5 C 226.5625 124.28125 228.945312 126.757812 230.722656 129.921875 C 232.5 133.09375 233.390625 137.152344 233.390625 142.101562 C 233.390625 151.011719 230.722656 157.445312 225.375 161.410156 C 220.039062 165.367188 213.195312 167.347656 204.878906 167.347656 Z M 111.027344 81.511719 L 111.027344 293.578125 L 213.796875 293.578125 C 223.292969 293.578125 232.554688 292.386719 241.558594 290.003906 C 250.574219 287.636719 258.59375 283.972656 265.625 279.019531 C 272.65625 274.066406 278.238281 267.691406 282.398438 259.863281 C 286.558594 252.039062 288.636719 242.789062 288.636719 232.089844 C 288.636719 218.832031 285.421875 207.492188 278.992188 198.09375 C 272.546875 188.679688 262.804688 182.097656 249.726562 178.335938 C 259.234375 173.78125 266.417969 167.9375 271.261719 160.808594 C 276.117188 153.679688 278.539062 144.773438 278.539062 134.082031 C 278.539062 124.179688 276.910156 115.867188 273.640625 109.132812 C 270.371094 102.398438 265.773438 97.003906 259.835938 92.945312 C 253.886719 88.886719 246.757812 85.964844 238.453125 84.183594 C 230.132812 82.402344 220.925781 81.511719 210.828125 81.511719 Z M 157.664062 257.347656 L 157.664062 199.132812 L 208.449219 199.132812 C 218.546875 199.132812 226.660156 201.457031 232.800781 206.109375 C 238.945312 210.761719 242.011719 218.53125 242.011719 229.421875 C 242.011719 234.964844 241.066406 239.519531 239.191406 243.089844 C 237.304688 246.648438 234.785156 249.464844 231.613281 251.546875 C 228.453125 253.625 224.785156 255.117188 220.625 256.007812 C 216.464844 256.894531 212.117188 257.347656 207.558594 257.347656 Z M 157.664062 257.347656 " fill-opacity="1" fill-rule="nonzero"/></svg>