<svg xmlns="http://www.w3.org/2000/svg" xmlns:xlink="http://www.w3.org/1999/xlink" width="300" zoomAndPan="magnify" viewBox="0 0 375 374.999991" height="300" preserveAspectRatio="xMidYMid meet" version="1.0"><defs><g/></defs><g fill="#000000" fill-opacity="1"><g transform="translate(-0.861114, 227.735097)"><g><path d="M 23.648438 -40.257812 C 23.648438 -55.597656 34.71875 -63.210938 45.792969 -63.210938 C 55.023438 -63.210938 64.367188 -57.90625 67.019531 -47.179688 L 86.972656 -47.179688 C 84.4375 -67.941406 66.558594 -82.015625 45.792969 -82.015625 C 22.722656 -82.015625 4.039062 -64.019531 4.039062 -40.257812 C 4.039062 -16.496094 22.722656 1.152344 45.792969 1.152344 C 66.789062 1.152344 84.089844 -12.804688 87.089844 -33.914062 L 67.132812 -33.914062 C 64.597656 -22.953125 55.253906 -17.417969 45.792969 -17.417969 C 34.71875 -17.417969 23.648438 -25.03125 23.648438 -40.257812 Z M 23.648438 -40.257812 "/></g></g></g><g fill="#000000" fill-opacity="1"><g transform="translate(84.726514, 227.735097)"><g><path d="M 21.222656 -80.746094 L 2.769531 -80.746094 L 2.769531 0 L 21.222656 0 Z M 21.222656 -80.746094 "/></g></g></g><g fill="#000000" fill-opacity="1"><g transform="translate(108.257092, 227.735097)"><g><path d="M 67.019531 -31.144531 C 67.019531 -53.40625 50.40625 -64.480469 33.796875 -64.480469 C 17.070312 -64.480469 0.460938 -53.40625 0.460938 -31.144531 C 0.460938 -8.996094 17.1875 2.078125 33.796875 2.078125 C 50.40625 2.078125 67.019531 -8.996094 67.019531 -31.144531 Z M 18.6875 -31.144531 C 18.6875 -41.757812 26.183594 -47.0625 33.796875 -47.0625 C 42.101562 -47.0625 48.792969 -41.757812 48.792969 -31.144531 C 48.792969 -20.648438 41.296875 -15.457031 33.796875 -15.457031 C 26.183594 -15.457031 18.6875 -20.648438 18.6875 -31.144531 Z M 18.6875 -31.144531 "/></g></g></g><g fill="#000000" fill-opacity="1"><g transform="translate(176.081173, 227.735097)"><g><path d="M 43.257812 -6.34375 L 43.257812 0 L 61.597656 0 L 61.597656 -62.40625 L 42.332031 -62.40625 L 42.332031 -28.492188 C 42.332031 -20.1875 36.679688 -15.570312 31.261719 -15.570312 C 26.300781 -15.570312 21.457031 -19.496094 21.457031 -28.144531 L 21.457031 -62.40625 L 3.113281 -62.40625 L 3.113281 -28.03125 C 3 -12.34375 7.960938 0.808594 26.300781 0.808594 C 32.757812 0.808594 38.988281 -0.921875 43.257812 -6.34375 Z M 43.257812 -6.34375 "/></g></g></g><g fill="#000000" fill-opacity="1"><g transform="translate(240.56018, 227.735097)"><g><path d="M 31.835938 -63.441406 C 11.535156 -63.441406 1.613281 -49.140625 1.613281 -32.066406 C 1.613281 -14.878906 11.882812 0.808594 31.605469 0.808594 C 37.605469 0.808594 43.71875 -0.921875 47.984375 -6.230469 L 47.984375 0 L 66.09375 0 L 66.09375 -81.320312 L 47.984375 -81.320312 L 47.984375 -56.753906 C 43.832031 -61.480469 37.949219 -63.441406 31.835938 -63.441406 Z M 33.796875 -16.609375 C 24.570312 -16.609375 19.839844 -24.109375 19.839844 -31.605469 C 19.839844 -39.21875 24.453125 -46.714844 33.796875 -46.714844 C 41.640625 -46.714844 47.984375 -39.910156 47.984375 -31.605469 C 47.984375 -23.300781 41.640625 -16.609375 33.796875 -16.609375 Z M 33.796875 -16.609375 "/></g></g></g><g fill="#000000" fill-opacity="1"><g transform="translate(309.537746, 227.735097)"><g><path d="M 61.480469 -59.519531 L 61.480469 -62.40625 L 42.679688 -62.40625 L 34.949219 -42.449219 L 30.335938 -26.644531 L 25.953125 -42.449219 L 18.226562 -62.40625 L -0.691406 -62.40625 L -0.691406 -59.519531 L 20.070312 -5.074219 L 11.996094 15.457031 L 11.996094 18.226562 L 30.796875 18.226562 C 40.949219 -7.726562 51.214844 -33.566406 61.480469 -59.519531 Z M 61.480469 -59.519531 "/></g></g></g></svg>