<svg xmlns="http://www.w3.org/2000/svg" xmlns:xlink="http://www.w3.org/1999/xlink" width="300" zoomAndPan="magnify" viewBox="0 0 375 374.999991" height="300" preserveAspectRatio="xMidYMid meet" version="1.0"><defs><g/><clipPath id="id1"><path d="M 65.839844 31 L 308.839844 31 L 308.839844 187.640625 L 65.839844 187.640625 Z M 65.839844 31 " clip-rule="nonzero"/></clipPath></defs><g fill="#000000" fill-opacity="1"><g transform="translate(-0.861114, 291.731069)"><g><path d="M 23.648438 -40.257812 C 23.648438 -55.597656 34.71875 -63.210938 45.792969 -63.210938 C 55.023438 -63.210938 64.367188 -57.90625 67.019531 -47.179688 L 86.972656 -47.179688 C 84.4375 -67.941406 66.558594 -82.015625 45.792969 -82.015625 C 22.722656 -82.015625 4.039062 -64.019531 4.039062 -40.257812 C 4.039062 -16.496094 22.722656 1.152344 45.792969 1.152344 C 66.789062 1.152344 84.089844 -12.804688 87.089844 -33.914062 L 67.132812 -33.914062 C 64.597656 -22.953125 55.253906 -17.417969 45.792969 -17.417969 C 34.71875 -17.417969 23.648438 -25.03125 23.648438 -40.257812 Z M 23.648438 -40.257812 "/></g></g></g><g fill="#000000" fill-opacity="1"><g transform="translate(84.726514, 291.731069)"><g><path d="M 21.222656 -80.746094 L 2.769531 -80.746094 L 2.769531 0 L 21.222656 0 Z M 21.222656 -80.746094 "/></g></g></g><g fill="#000000" fill-opacity="1"><g transform="translate(108.257092, 291.731069)"><g><path d="M 67.019531 -31.144531 C 67.019531 -53.40625 50.40625 -64.480469 33.796875 -64.480469 C 17.070312 -64.480469 0.460938 -53.40625 0.460938 -31.144531 C 0.460938 -8.996094 17.1875 2.078125 33.796875 2.078125 C 50.40625 2.078125 67.019531 -8.996094 67.019531 -31.144531 Z M 18.6875 -31.144531 C 18.6875 -41.757812 26.183594 -47.0625 33.796875 -47.0625 C 42.101562 -47.0625 48.792969 -41.757812 48.792969 -31.144531 C 48.792969 -20.648438 41.296875 -15.457031 33.796875 -15.457031 C 26.183594 -15.457031 18.6875 -20.648438 18.6875 -31.144531 Z M 18.6875 -31.144531 "/></g></g></g><g fill="#000000" fill-opacity="1"><g transform="translate(176.081173, 291.731069)"><g><path d="M 43.257812 -6.34375 L 43.257812 0 L 61.597656 0 L 61.597656 -62.40625 L 42.332031 -62.40625 L 42.332031 -28.492188 C 42.332031 -20.1875 36.679688 -15.570312 31.261719 -15.570312 C 26.300781 -15.570312 21.457031 -19.496094 21.457031 -28.144531 L 21.457031 -62.40625 L 3.113281 -62.40625 L 3.113281 -28.03125 C 3 -12.34375 7.960938 0.808594 26.300781 0.808594 C 32.757812 0.808594 38.988281 -0.921875 43.257812 -6.34375 Z M 43.257812 -6.34375 "/></g></g></g><g fill="#000000" fill-opacity="1"><g transform="translate(240.56018, 291.731069)"><g><path d="M 31.835938 -63.441406 C 11.535156 -63.441406 1.613281 -49.140625 1.613281 -32.066406 C 1.613281 -14.878906 11.882812 0.808594 31.605469 0.808594 C 37.605469 0.808594 43.71875 -0.921875 47.984375 -6.230469 L 47.984375 0 L 66.09375 0 L 66.09375 -81.320312 L 47.984375 -81.320312 L 47.984375 -56.753906 C 43.832031 -61.480469 37.949219 -63.441406 31.835938 -63.441406 Z M 33.796875 -16.609375 C 24.570312 -16.609375 19.839844 -24.109375 19.839844 -31.605469 C 19.839844 -39.21875 24.453125 -46.714844 33.796875 -46.714844 C 41.640625 -46.714844 47.984375 -39.910156 47.984375 -31.605469 C 47.984375 -23.300781 41.640625 -16.609375 33.796875 -16.609375 Z M 33.796875 -16.609375 "/></g></g></g><g fill="#000000" fill-opacity="1"><g transform="translate(309.537746, 291.731069)"><g><path d="M 61.480469 -59.519531 L 61.480469 -62.40625 L 42.679688 -62.40625 L 34.949219 -42.449219 L 30.335938 -26.644531 L 25.953125 -42.449219 L 18.226562 -62.40625 L -0.691406 -62.40625 L -0.691406 -59.519531 L 20.070312 -5.074219 L 11.996094 15.457031 L 11.996094 18.226562 L 30.796875 18.226562 C 40.949219 -7.726562 51.214844 -33.566406 61.480469 -59.519531 Z M 61.480469 -59.519531 "/></g></g></g><g clip-path="url(#id1)"><path fill="#000000" d="M 166.273438 31.140625 C 168.230469 31.277344 170.167969 31.53125 172.09375 31.90625 C 174.019531 32.277344 175.914062 32.769531 177.777344 33.375 C 179.640625 33.980469 181.464844 34.699219 183.242188 35.527344 C 185.015625 36.355469 186.738281 37.292969 188.398438 38.332031 C 190.0625 39.371094 191.65625 40.511719 193.179688 41.746094 C 194.703125 42.984375 196.144531 44.308594 197.507812 45.71875 C 198.871094 47.132812 200.140625 48.625 201.320312 50.191406 C 202.5 51.761719 203.582031 53.398438 204.5625 55.097656 L 218.164062 78.714844 L 218.660156 75.785156 C 219.054688 74.308594 219.554688 72.871094 220.160156 71.472656 C 220.765625 70.070312 221.46875 68.722656 222.273438 67.425781 C 223.078125 66.128906 223.972656 64.898438 224.957031 63.734375 C 225.941406 62.570312 227.007812 61.484375 228.152344 60.476562 C 229.296875 59.472656 230.511719 58.554688 231.789062 57.726562 C 233.070312 56.898438 234.402344 56.171875 235.792969 55.539062 C 237.179688 54.910156 238.605469 54.386719 240.070312 53.964844 C 241.535156 53.546875 243.019531 53.238281 244.53125 53.039062 C 246.042969 52.839844 247.558594 52.75 249.082031 52.777344 C 250.605469 52.800781 252.117188 52.9375 253.621094 53.1875 C 255.125 53.433594 256.601562 53.792969 258.050781 54.261719 C 259.5 54.726562 260.910156 55.296875 262.273438 55.972656 C 263.640625 56.648438 264.949219 57.421875 266.203125 58.289062 C 267.453125 59.160156 268.636719 60.113281 269.75 61.160156 C 270.859375 62.203125 271.890625 63.320312 272.835938 64.519531 C 273.78125 65.714844 274.636719 66.972656 275.398438 68.292969 L 304.683594 119.125 C 305.191406 120.007812 305.65625 120.910156 306.074219 121.835938 C 306.492188 122.765625 306.867188 123.707031 307.191406 124.671875 C 307.519531 125.636719 307.796875 126.613281 308.027344 127.601562 C 308.257812 128.59375 308.4375 129.59375 308.570312 130.601562 C 308.703125 131.609375 308.785156 132.625 308.816406 133.640625 C 308.851562 134.65625 308.835938 135.671875 308.769531 136.6875 C 308.703125 137.703125 308.585938 138.710938 308.417969 139.714844 C 308.253906 140.71875 308.039062 141.714844 307.777344 142.695312 C 307.515625 143.679688 307.203125 144.644531 306.847656 145.597656 C 306.488281 146.550781 306.085938 147.480469 305.636719 148.394531 C 305.1875 149.304688 304.695312 150.195312 304.15625 151.058594 C 303.621094 151.921875 303.042969 152.757812 302.425781 153.5625 C 301.808594 154.371094 301.152344 155.144531 300.457031 155.886719 C 299.765625 156.628906 299.035156 157.335938 298.273438 158.007812 C 297.507812 158.679688 296.714844 159.308594 295.890625 159.902344 C 295.066406 160.492188 294.210938 161.042969 293.332031 161.554688 C 292.453125 162.0625 291.550781 162.527344 290.628906 162.945312 C 289.703125 163.363281 288.761719 163.738281 287.800781 164.066406 C 286.835938 164.390625 285.863281 164.671875 284.875 164.902344 C 283.886719 165.132812 282.886719 165.3125 281.882812 165.445312 C 280.875 165.578125 279.863281 165.660156 278.851562 165.695312 C 277.835938 165.726562 276.824219 165.710938 275.808594 165.644531 C 274.796875 165.578125 273.789062 165.460938 272.789062 165.296875 C 271.785156 165.128906 270.796875 164.914062 269.816406 164.652344 C 268.835938 164.386719 267.871094 164.078125 266.917969 163.71875 C 265.96875 163.359375 265.039062 162.957031 264.128906 162.503906 C 263.21875 162.054688 262.332031 161.5625 261.472656 161.023438 C 260.609375 160.488281 259.777344 159.910156 258.96875 159.289062 C 258.164062 158.671875 257.390625 158.011719 256.652344 157.316406 C 255.910156 156.621094 255.207031 155.890625 254.535156 155.125 C 253.867188 154.363281 253.238281 153.566406 252.648438 152.738281 C 252.054688 151.910156 251.507812 151.058594 251 150.175781 L 245.347656 140.492188 L 245.347656 142.644531 C 245.257812 143.917969 245.113281 145.183594 244.921875 146.445312 C 244.730469 147.707031 244.488281 148.957031 244.199219 150.199219 C 243.90625 151.441406 243.566406 152.667969 243.179688 153.882812 C 242.789062 155.097656 242.355469 156.296875 241.871094 157.476562 C 241.386719 158.65625 240.859375 159.816406 240.28125 160.953125 C 239.707031 162.09375 239.085938 163.207031 238.421875 164.292969 C 237.757812 165.382812 237.054688 166.445312 236.304688 167.476562 C 235.558594 168.507812 234.769531 169.507812 233.941406 170.480469 C 233.117188 171.449219 232.25 172.382812 231.347656 173.285156 C 230.449219 174.183594 229.511719 175.046875 228.542969 175.875 C 227.570312 176.699219 226.570312 177.488281 225.539062 178.234375 C 224.503906 178.980469 223.445312 179.683594 222.355469 180.347656 C 221.269531 181.007812 220.15625 181.625 219.019531 182.199219 C 217.882812 182.773438 216.722656 183.300781 215.542969 183.78125 C 214.363281 184.261719 213.167969 184.695312 211.957031 185.078125 C 210.742188 185.464844 209.515625 185.800781 208.273438 186.089844 C 207.035156 186.378906 205.785156 186.617188 204.527344 186.804688 C 203.265625 186.992188 202.003906 187.128906 200.730469 187.21875 C 199.460938 187.304688 198.191406 187.34375 196.917969 187.328125 C 195.644531 187.316406 194.375 187.25 193.105469 187.136719 C 191.839844 187.019531 190.578125 186.855469 189.324219 186.640625 C 188.066406 186.421875 186.824219 186.160156 185.589844 185.84375 C 184.355469 185.53125 183.136719 185.167969 181.933594 184.753906 C 180.726562 184.34375 179.539062 183.882812 178.371094 183.378906 C 177.203125 182.871094 176.058594 182.320312 174.933594 181.722656 C 173.808594 181.125 172.707031 180.480469 171.636719 179.796875 C 170.5625 179.109375 169.515625 178.382812 168.5 177.617188 C 167.484375 176.847656 166.5 176.039062 165.546875 175.191406 C 164.597656 174.34375 163.679688 173.460938 162.796875 172.542969 C 161.914062 171.621094 161.070312 170.667969 160.265625 169.679688 C 159.457031 168.695312 158.691406 167.675781 157.96875 166.628906 C 157.242188 165.578125 156.558594 164.503906 155.917969 163.402344 L 147.328125 148.546875 L 146.464844 153.6875 C 146.074219 155.164062 145.574219 156.601562 144.96875 158 C 144.363281 159.402344 143.65625 160.75 142.855469 162.046875 C 142.050781 163.34375 141.15625 164.574219 140.167969 165.738281 C 139.183594 166.902344 138.121094 167.988281 136.972656 168.996094 C 135.828125 170 134.617188 170.917969 133.335938 171.746094 C 132.058594 172.574219 130.722656 173.300781 129.335938 173.933594 C 127.949219 174.5625 126.523438 175.085938 125.058594 175.507812 C 123.59375 175.925781 122.105469 176.234375 120.59375 176.433594 C 119.085938 176.632812 117.570312 176.722656 116.046875 176.695312 C 114.523438 176.671875 113.007812 176.535156 111.507812 176.285156 C 110.003906 176.039062 108.527344 175.679688 107.078125 175.210938 C 105.628906 174.746094 104.21875 174.175781 102.851562 173.5 C 101.488281 172.824219 100.175781 172.050781 98.925781 171.183594 C 97.671875 170.3125 96.492188 169.359375 95.378906 168.3125 C 94.265625 167.269531 93.238281 166.152344 92.292969 164.953125 C 91.34375 163.757812 90.492188 162.5 89.730469 161.179688 L 69.949219 126.941406 C 69.5 126.171875 69.085938 125.386719 68.703125 124.582031 C 68.320312 123.777344 67.972656 122.957031 67.660156 122.121094 C 67.351562 121.285156 67.074219 120.441406 66.835938 119.582031 C 66.597656 118.722656 66.394531 117.855469 66.230469 116.980469 C 66.066406 116.105469 65.941406 115.222656 65.851562 114.335938 C 65.761719 113.449219 65.710938 112.5625 65.699219 111.667969 C 65.6875 110.777344 65.714844 109.886719 65.777344 109 C 65.84375 108.109375 65.945312 107.226562 66.085938 106.347656 C 66.226562 105.464844 66.402344 104.59375 66.617188 103.730469 C 66.832031 102.863281 67.085938 102.011719 67.375 101.167969 C 67.660156 100.324219 67.984375 99.496094 68.34375 98.679688 C 68.707031 97.863281 69.097656 97.066406 69.527344 96.285156 C 69.957031 95.503906 70.417969 94.742188 70.910156 94.003906 C 71.402344 93.261719 71.929688 92.542969 72.484375 91.847656 C 73.039062 91.152344 73.625 90.480469 74.238281 89.835938 C 74.851562 89.1875 75.488281 88.570312 76.15625 87.980469 C 76.820312 87.390625 77.511719 86.828125 78.226562 86.296875 C 78.941406 85.769531 79.675781 85.269531 80.433594 84.800781 C 81.191406 84.335938 81.96875 83.898438 82.761719 83.5 C 83.554688 83.097656 84.367188 82.734375 85.191406 82.402344 C 86.019531 82.074219 86.855469 81.777344 87.707031 81.519531 C 88.558594 81.261719 89.417969 81.042969 90.289062 80.859375 C 91.160156 80.675781 92.035156 80.527344 92.917969 80.417969 C 93.800781 80.3125 94.6875 80.242188 95.574219 80.210938 C 96.464844 80.179688 97.351562 80.183594 98.242188 80.230469 C 99.128906 80.273438 100.011719 80.359375 100.894531 80.480469 C 101.777344 80.601562 102.648438 80.757812 103.515625 80.957031 C 104.382812 81.152344 105.242188 81.386719 106.089844 81.65625 C 106.9375 81.925781 107.769531 82.234375 108.589844 82.578125 C 109.410156 82.917969 110.214844 83.296875 111.003906 83.707031 C 111.792969 84.121094 112.5625 84.566406 113.3125 85.042969 C 114.0625 85.523438 114.792969 86.03125 115.5 86.574219 L 115.171875 85.15625 C 115.0625 84.277344 114.976562 83.398438 114.914062 82.511719 C 114.855469 81.628906 114.816406 80.742188 114.804688 79.855469 C 114.792969 78.96875 114.804688 78.082031 114.839844 77.199219 C 114.875 76.3125 114.933594 75.425781 115.019531 74.546875 C 115.105469 73.664062 115.214844 72.785156 115.347656 71.90625 C 115.480469 71.03125 115.636719 70.160156 115.820312 69.289062 C 116 68.421875 116.207031 67.5625 116.433594 66.703125 C 116.664062 65.847656 116.914062 65 117.191406 64.15625 C 117.464844 63.3125 117.765625 62.480469 118.085938 61.652344 C 118.410156 60.828125 118.753906 60.011719 119.121094 59.207031 C 119.484375 58.398438 119.875 57.601562 120.285156 56.816406 C 120.695312 56.03125 121.128906 55.257812 121.582031 54.496094 C 122.035156 53.734375 122.507812 52.988281 123 52.253906 C 123.496094 51.515625 124.011719 50.796875 124.542969 50.089844 C 125.078125 49.382812 125.632812 48.691406 126.203125 48.015625 C 126.777344 47.339844 127.367188 46.679688 127.976562 46.035156 C 128.585938 45.394531 129.210938 44.765625 129.851562 44.160156 C 130.496094 43.550781 131.15625 42.960938 131.832031 42.386719 C 132.507812 41.816406 133.199219 41.261719 133.902344 40.726562 C 134.609375 40.195312 135.332031 39.679688 136.066406 39.1875 C 136.800781 38.691406 137.546875 38.21875 138.308594 37.765625 C 139.066406 37.3125 139.839844 36.882812 140.625 36.472656 C 141.410156 36.0625 142.203125 35.675781 143.011719 35.308594 C 143.816406 34.941406 144.632812 34.597656 145.457031 34.277344 C 146.28125 33.957031 147.113281 33.660156 147.953125 33.386719 C 148.796875 33.109375 149.644531 32.859375 150.5 32.632812 C 151.351562 32.40625 152.214844 32.199219 153.078125 32.019531 C 153.945312 31.839844 154.816406 31.683594 155.691406 31.554688 C 156.566406 31.421875 157.445312 31.3125 158.324219 31.230469 C 159.207031 31.148438 160.085938 31.089844 160.972656 31.054688 C 161.855469 31.019531 162.738281 31.011719 163.625 31.023438 C 164.507812 31.039062 165.390625 31.078125 166.273438 31.140625 Z M 166.273438 31.140625 " fill-opacity="1" fill-rule="evenodd"/></g></svg>