<svg xmlns="http://www.w3.org/2000/svg" xmlns:xlink="http://www.w3.org/1999/xlink" width="300" zoomAndPan="magnify" viewBox="0 0 375 374.999991" height="300" preserveAspectRatio="xMidYMid meet" version="1.0"><defs><g/><clipPath id="id1"><path d="M 76.207031 37.5 L 298.957031 37.5 L 298.957031 180.75 L 76.207031 180.75 Z M 76.207031 37.5 " clip-rule="nonzero"/></clipPath></defs><g fill="#000000" fill-opacity="1"><g transform="translate(-0.861114, 265.117996)"><g><path d="M 23.648438 -40.257812 C 23.648438 -55.597656 34.71875 -63.210938 45.792969 -63.210938 C 55.023438 -63.210938 64.367188 -57.90625 67.019531 -47.179688 L 86.972656 -47.179688 C 84.4375 -67.941406 66.558594 -82.015625 45.792969 -82.015625 C 22.722656 -82.015625 4.039062 -64.019531 4.039062 -40.257812 C 4.039062 -16.496094 22.722656 1.152344 45.792969 1.152344 C 66.789062 1.152344 84.089844 -12.804688 87.089844 -33.914062 L 67.132812 -33.914062 C 64.597656 -22.953125 55.253906 -17.417969 45.792969 -17.417969 C 34.71875 -17.417969 23.648438 -25.03125 23.648438 -40.257812 Z M 23.648438 -40.257812 "/></g></g></g><g fill="#000000" fill-opacity="1"><g transform="translate(84.726514, 265.117996)"><g><path d="M 21.222656 -80.746094 L 2.769531 -80.746094 L 2.769531 0 L 21.222656 0 Z M 21.222656 -80.746094 "/></g></g></g><g fill="#000000" fill-opacity="1"><g transform="translate(108.257092, 265.117996)"><g><path d="M 67.019531 -31.144531 C 67.019531 -53.40625 50.40625 -64.480469 33.796875 -64.480469 C 17.070312 -64.480469 0.460938 -53.40625 0.460938 -31.144531 C 0.460938 -8.996094 17.1875 2.078125 33.796875 2.078125 C 50.40625 2.078125 67.019531 -8.996094 67.019531 -31.144531 Z M 18.6875 -31.144531 C 18.6875 -41.757812 26.183594 -47.0625 33.796875 -47.0625 C 42.101562 -47.0625 48.792969 -41.757812 48.792969 -31.144531 C 48.792969 -20.648438 41.296875 -15.457031 33.796875 -15.457031 C 26.183594 -15.457031 18.6875 -20.648438 18.6875 -31.144531 Z M 18.6875 -31.144531 "/></g></g></g><g fill="#000000" fill-opacity="1"><g transform="translate(176.081173, 265.117996)"><g><path d="M 43.257812 -6.34375 L 43.257812 0 L 61.597656 0 L 61.597656 -62.40625 L 42.332031 -62.40625 L 42.332031 -28.492188 C 42.332031 -20.1875 36.679688 -15.570312 31.261719 -15.570312 C 26.300781 -15.570312 21.457031 -19.496094 21.457031 -28.144531 L 21.457031 -62.40625 L 3.113281 -62.40625 L 3.113281 -28.03125 C 3 -12.34375 7.960938 0.808594 26.300781 0.808594 C 32.757812 0.808594 38.988281 -0.921875 43.257812 -6.34375 Z M 43.257812 -6.34375 "/></g></g></g><g fill="#000000" fill-opacity="1"><g transform="translate(240.56018, 265.117996)"><g><path d="M 31.835938 -63.441406 C 11.535156 -63.441406 1.613281 -49.140625 1.613281 -32.066406 C 1.613281 -14.878906 11.882812 0.808594 31.605469 0.808594 C 37.605469 0.808594 43.71875 -0.921875 47.984375 -6.230469 L 47.984375 0 L 66.09375 0 L 66.09375 -81.320312 L 47.984375 -81.320312 L 47.984375 -56.753906 C 43.832031 -61.480469 37.949219 -63.441406 31.835938 -63.441406 Z M 33.796875 -16.609375 C 24.570312 -16.609375 19.839844 -24.109375 19.839844 -31.605469 C 19.839844 -39.21875 24.453125 -46.714844 33.796875 -46.714844 C 41.640625 -46.714844 47.984375 -39.910156 47.984375 -31.605469 C 47.984375 -23.300781 41.640625 -16.609375 33.796875 -16.609375 Z M 33.796875 -16.609375 "/></g></g></g><g fill="#000000" fill-opacity="1"><g transform="translate(309.537746, 265.117996)"><g><path d="M 61.480469 -59.519531 L 61.480469 -62.40625 L 42.679688 -62.40625 L 34.949219 -42.449219 L 30.335938 -26.644531 L 25.953125 -42.449219 L 18.226562 -62.40625 L -0.691406 -62.40625 L -0.691406 -59.519531 L 20.070312 -5.074219 L 11.996094 15.457031 L 11.996094 18.226562 L 30.796875 18.226562 C 40.949219 -7.726562 51.214844 -33.566406 61.480469 -59.519531 Z M 61.480469 -59.519531 "/></g></g></g><g clip-path="url(#id1)"><path fill="#000000" d="M 168.269531 37.730469 C 170.0625 37.851562 171.84375 38.085938 173.605469 38.425781 C 175.371094 38.769531 177.105469 39.214844 178.816406 39.769531 C 180.527344 40.324219 182.195312 40.980469 183.824219 41.738281 C 185.453125 42.496094 187.027344 43.347656 188.554688 44.300781 C 190.078125 45.25 191.539062 46.292969 192.933594 47.421875 C 194.332031 48.550781 195.652344 49.761719 196.902344 51.050781 C 198.152344 52.34375 199.316406 53.707031 200.398438 55.140625 C 201.480469 56.574219 202.46875 58.066406 203.367188 59.625 L 215.839844 81.207031 L 216.292969 78.527344 C 216.652344 77.179688 217.109375 75.867188 217.664062 74.585938 C 218.222656 73.304688 218.867188 72.074219 219.605469 70.890625 C 220.339844 69.703125 221.160156 68.578125 222.0625 67.515625 C 222.96875 66.453125 223.945312 65.460938 224.992188 64.539062 C 226.042969 63.617188 227.152344 62.78125 228.328125 62.023438 C 229.5 61.269531 230.722656 60.601562 231.996094 60.027344 C 233.265625 59.449219 234.574219 58.972656 235.917969 58.585938 C 237.257812 58.203125 238.621094 57.921875 240.007812 57.738281 C 241.390625 57.558594 242.78125 57.476562 244.179688 57.5 C 245.574219 57.523438 246.960938 57.648438 248.339844 57.875 C 249.714844 58.101562 251.070312 58.429688 252.398438 58.855469 C 253.726562 59.285156 255.019531 59.804688 256.269531 60.421875 C 257.523438 61.039062 258.722656 61.746094 259.871094 62.539062 C 261.019531 63.332031 262.101562 64.207031 263.121094 65.160156 C 264.140625 66.113281 265.085938 67.136719 265.953125 68.230469 C 266.820312 69.324219 267.601562 70.476562 268.300781 71.683594 L 295.148438 118.136719 C 295.613281 118.941406 296.039062 119.769531 296.421875 120.617188 C 296.804688 121.460938 297.144531 122.328125 297.445312 123.207031 C 297.746094 124.085938 298 124.980469 298.210938 125.886719 C 298.421875 126.792969 298.585938 127.703125 298.710938 128.625 C 298.832031 129.546875 298.90625 130.472656 298.9375 131.402344 C 298.964844 132.332031 298.953125 133.261719 298.890625 134.1875 C 298.828125 135.117188 298.722656 136.039062 298.570312 136.957031 C 298.417969 137.871094 298.222656 138.78125 297.980469 139.679688 C 297.742188 140.578125 297.457031 141.460938 297.128906 142.332031 C 296.800781 143.199219 296.429688 144.050781 296.019531 144.886719 C 295.609375 145.71875 295.15625 146.53125 294.664062 147.320312 C 294.171875 148.109375 293.644531 148.875 293.078125 149.609375 C 292.511719 150.347656 291.910156 151.054688 291.273438 151.734375 C 290.636719 152.414062 289.96875 153.058594 289.269531 153.671875 C 288.570312 154.285156 287.84375 154.863281 287.085938 155.402344 C 286.328125 155.945312 285.546875 156.449219 284.742188 156.914062 C 283.9375 157.378906 283.109375 157.800781 282.261719 158.183594 C 281.414062 158.566406 280.550781 158.910156 279.667969 159.207031 C 278.789062 159.507812 277.894531 159.761719 276.988281 159.972656 C 276.082031 160.183594 275.167969 160.347656 274.246094 160.46875 C 273.324219 160.589844 272.394531 160.667969 271.464844 160.699219 C 270.535156 160.726562 269.605469 160.710938 268.679688 160.652344 C 267.75 160.589844 266.828125 160.484375 265.910156 160.332031 C 264.992188 160.179688 264.082031 159.984375 263.183594 159.746094 C 262.285156 159.503906 261.398438 159.21875 260.53125 158.890625 C 259.660156 158.5625 258.804688 158.195312 257.972656 157.78125 C 257.136719 157.371094 256.324219 156.921875 255.535156 156.429688 C 254.746094 155.9375 253.980469 155.410156 253.242188 154.84375 C 252.503906 154.277344 251.796875 153.675781 251.117188 153.042969 C 250.4375 152.40625 249.792969 151.738281 249.179688 151.039062 C 248.566406 150.339844 247.988281 149.613281 247.445312 148.855469 C 246.902344 148.101562 246.402344 147.320312 245.9375 146.515625 L 240.753906 137.664062 L 240.753906 139.632812 C 240.671875 140.792969 240.542969 141.953125 240.367188 143.105469 C 240.191406 144.257812 239.96875 145.402344 239.703125 146.535156 C 239.433594 147.671875 239.125 148.792969 238.765625 149.902344 C 238.410156 151.015625 238.011719 152.109375 237.570312 153.1875 C 237.125 154.265625 236.640625 155.324219 236.113281 156.367188 C 235.585938 157.40625 235.015625 158.421875 234.40625 159.417969 C 233.800781 160.414062 233.152344 161.382812 232.464844 162.324219 C 231.78125 163.269531 231.058594 164.183594 230.300781 165.070312 C 229.542969 165.957031 228.75 166.8125 227.921875 167.632812 C 227.097656 168.457031 226.238281 169.246094 225.351562 170 C 224.460938 170.757812 223.542969 171.476562 222.597656 172.15625 C 221.648438 172.839844 220.679688 173.480469 219.679688 174.085938 C 218.683594 174.691406 217.664062 175.257812 216.621094 175.78125 C 215.578125 176.304688 214.515625 176.785156 213.433594 177.226562 C 212.355469 177.664062 211.257812 178.0625 210.144531 178.414062 C 209.03125 178.765625 207.910156 179.074219 206.773438 179.335938 C 205.632812 179.601562 204.488281 179.816406 203.335938 179.988281 C 202.179688 180.160156 201.023438 180.289062 199.859375 180.367188 C 198.695312 180.449219 197.527344 180.480469 196.359375 180.46875 C 195.195312 180.457031 194.03125 180.398438 192.867188 180.292969 C 191.707031 180.1875 190.550781 180.035156 189.398438 179.839844 C 188.25 179.640625 187.109375 179.398438 185.976562 179.113281 C 184.847656 178.824219 183.730469 178.492188 182.625 178.117188 C 181.519531 177.738281 180.433594 177.320312 179.359375 176.859375 C 178.289062 176.394531 177.238281 175.890625 176.207031 175.34375 C 175.175781 174.796875 174.167969 174.210938 173.183594 173.585938 C 172.199219 172.957031 171.242188 172.292969 170.3125 171.59375 C 169.378906 170.890625 168.476562 170.152344 167.605469 169.378906 C 166.734375 168.601562 165.890625 167.796875 165.082031 166.957031 C 164.273438 166.113281 163.5 165.242188 162.761719 164.339844 C 162.023438 163.4375 161.320312 162.507812 160.65625 161.550781 C 159.992188 160.589844 159.363281 159.609375 158.777344 158.601562 L 150.90625 145.027344 L 150.113281 149.722656 C 149.753906 151.070312 149.296875 152.386719 148.742188 153.667969 C 148.183594 154.945312 147.539062 156.179688 146.800781 157.363281 C 146.066406 158.546875 145.246094 159.671875 144.34375 160.738281 C 143.4375 161.800781 142.460938 162.792969 141.414062 163.714844 C 140.363281 164.632812 139.25 165.472656 138.078125 166.226562 C 136.90625 166.984375 135.683594 167.648438 134.410156 168.226562 C 133.140625 168.800781 131.832031 169.28125 130.488281 169.664062 C 129.148438 170.046875 127.785156 170.332031 126.398438 170.511719 C 125.015625 170.695312 123.625 170.773438 122.226562 170.753906 C 120.832031 170.730469 119.445312 170.605469 118.066406 170.378906 C 116.691406 170.148438 115.335938 169.824219 114.007812 169.394531 C 112.679688 168.96875 111.386719 168.445312 110.136719 167.828125 C 108.882812 167.214844 107.683594 166.507812 106.535156 165.714844 C 105.386719 164.917969 104.304688 164.046875 103.285156 163.089844 C 102.265625 162.136719 101.320312 161.113281 100.453125 160.019531 C 99.585938 158.929688 98.804688 157.777344 98.105469 156.570312 L 79.972656 125.28125 C 79.148438 123.871094 78.449219 122.40625 77.875 120.875 C 77.304688 119.347656 76.867188 117.78125 76.566406 116.175781 C 76.261719 114.574219 76.101562 112.957031 76.078125 111.324219 C 76.054688 109.691406 76.171875 108.070312 76.429688 106.457031 C 76.6875 104.847656 77.082031 103.269531 77.613281 101.726562 C 78.140625 100.183594 78.800781 98.695312 79.585938 97.265625 C 80.375 95.835938 81.277344 94.480469 82.296875 93.207031 C 83.316406 91.933594 84.4375 90.753906 85.664062 89.675781 C 86.886719 88.59375 88.195312 87.625 89.585938 86.769531 C 90.976562 85.914062 92.429688 85.183594 93.945312 84.578125 C 95.460938 83.972656 97.019531 83.5 98.617188 83.164062 C 100.214844 82.828125 101.832031 82.628906 103.464844 82.574219 C 105.097656 82.515625 106.722656 82.597656 108.339844 82.816406 C 109.957031 83.039062 111.546875 83.398438 113.101562 83.894531 C 114.65625 84.390625 116.160156 85.015625 117.609375 85.769531 C 119.054688 86.523438 120.429688 87.398438 121.726562 88.386719 L 121.429688 87.09375 C 121.328125 86.289062 121.25 85.484375 121.191406 84.675781 C 121.136719 83.867188 121.101562 83.058594 121.089844 82.25 C 121.078125 81.4375 121.089844 80.628906 121.121094 79.820312 C 121.15625 79.011719 121.210938 78.203125 121.289062 77.394531 C 121.367188 76.589844 121.464844 75.785156 121.589844 74.984375 C 121.710938 74.183594 121.855469 73.386719 122.019531 72.59375 C 122.1875 71.800781 122.375 71.011719 122.585938 70.230469 C 122.792969 69.449219 123.027344 68.671875 123.277344 67.902344 C 123.53125 67.132812 123.804688 66.367188 124.097656 65.613281 C 124.394531 64.859375 124.710938 64.113281 125.046875 63.375 C 125.382812 62.640625 125.738281 61.910156 126.113281 61.195312 C 126.492188 60.476562 126.886719 59.769531 127.300781 59.074219 C 127.71875 58.378906 128.152344 57.695312 128.605469 57.023438 C 129.058594 56.351562 129.53125 55.691406 130.019531 55.046875 C 130.507812 54.398438 131.015625 53.769531 131.539062 53.148438 C 132.066406 52.53125 132.605469 51.929688 133.164062 51.339844 C 133.722656 50.753906 134.296875 50.179688 134.886719 49.625 C 135.476562 49.070312 136.078125 48.527344 136.699219 48.007812 C 137.316406 47.484375 137.953125 46.976562 138.597656 46.488281 C 139.246094 46 139.90625 45.53125 140.578125 45.082031 C 141.253906 44.628906 141.9375 44.195312 142.636719 43.78125 C 143.332031 43.371094 144.039062 42.976562 144.757812 42.601562 C 145.476562 42.226562 146.207031 41.871094 146.945312 41.535156 C 147.683594 41.203125 148.433594 40.890625 149.1875 40.597656 C 149.945312 40.300781 150.707031 40.03125 151.476562 39.78125 C 152.25 39.527344 153.027344 39.300781 153.808594 39.089844 C 154.59375 38.882812 155.382812 38.695312 156.175781 38.53125 C 156.96875 38.367188 157.769531 38.226562 158.570312 38.105469 C 159.371094 37.984375 160.175781 37.886719 160.984375 37.808594 C 161.792969 37.734375 162.601562 37.679688 163.410156 37.648438 C 164.21875 37.617188 165.03125 37.609375 165.839844 37.621094 C 166.652344 37.636719 167.460938 37.671875 168.269531 37.730469 Z M 168.269531 37.730469 " fill-opacity="1" fill-rule="evenodd"/></g></svg>