<svg xmlns="http://www.w3.org/2000/svg" xmlns:xlink="http://www.w3.org/1999/xlink" width="100" zoomAndPan="magnify" viewBox="0 0 375 374.999991" height="100" preserveAspectRatio="xMidYMid meet" version="1.0"><path fill="rgb(94.898987%, 94.898987%, 94.898987%)" d="M 375 187.5 C 375 247.789062 346.539062 301.4375 302.316406 335.738281 C 270.59375 360.355469 230.761719 375 187.5 375 C 144.238281 375 104.402344 360.355469 72.679688 335.738281 C 28.464844 301.4375 0 247.789062 0 187.5 C 0 83.945312 83.945312 0 187.5 0 C 291.050781 0 375 83.945312 375 187.5 Z M 375 187.5 " fill-opacity="1" fill-rule="nonzero"/><path fill="rgb(0%, 41.958618%, 75.289917%)" d="M 323.726562 87.503906 L 302.316406 335.738281 C 270.59375 360.355469 230.761719 375 187.5 375 C 144.238281 375 104.402344 360.355469 72.679688 335.738281 L 51.277344 87.503906 Z M 323.726562 87.503906 " fill-opacity="1" fill-rule="nonzero"/><path fill="rgb(0%, 58.81958%, 86.268616%)" d="M 187.496094 110.839844 L 187.496094 370.089844 L 277.050781 344.804688 L 297.03125 110.839844 Z M 187.496094 110.839844 " fill-opacity="1" fill-rule="nonzero"/><path fill="rgb(100%, 100%, 100%)" d="M 266.628906 212.242188 L 202.039062 212.242188 L 269.53125 177.898438 L 272.449219 143.367188 L 102.550781 143.367188 L 105.523438 178.570312 L 173.722656 178.570312 L 108.285156 211.292969 L 111.328125 247.355469 L 228.058594 247.355469 L 224.234375 290.304688 L 187.496094 300.253906 L 149.230469 289.542969 L 148.277344 262.753906 L 112.632812 262.753906 L 117.089844 315.566406 L 187.496094 335.457031 L 257.90625 315.566406 L 266.628906 212.238281 Z M 266.628906 212.242188 " fill-opacity="1" fill-rule="nonzero"/><path fill="rgb(13.328552%, 12.939453%, 13.729858%)" d="M 121.105469 49.234375 L 121.105469 24.746094 L 156.3125 24.746094 L 156.3125 11.476562 L 108.351562 11.476562 L 108.351562 62.503906 L 156.3125 62.503906 L 156.3125 49.234375 Z M 121.105469 49.234375 " fill-opacity="1" fill-rule="nonzero"/><path fill="rgb(13.328552%, 12.939453%, 13.729858%)" d="M 176.910156 31.441406 L 176.910156 25.320312 L 211.921875 25.320312 L 211.921875 11.476562 L 163.964844 11.476562 L 163.964844 43.109375 L 198.339844 43.109375 L 198.339844 49.234375 L 163.964844 49.234375 L 163.964844 62.503906 L 211.921875 62.503906 L 211.921875 31.441406 Z M 176.910156 31.441406 " fill-opacity="1" fill-rule="nonzero"/><path fill="rgb(13.328552%, 12.939453%, 13.729858%)" d="M 231.628906 31.441406 L 231.628906 25.320312 L 266.644531 25.320312 L 266.644531 11.476562 L 218.683594 11.476562 L 218.683594 43.109375 L 253.058594 43.109375 L 253.058594 49.234375 L 218.683594 49.234375 L 218.683594 62.503906 L 266.644531 62.503906 L 266.644531 31.441406 Z M 231.628906 31.441406 " fill-opacity="1" fill-rule="nonzero"/></svg>