<svg xmlns="http://www.w3.org/2000/svg" xmlns:xlink="http://www.w3.org/1999/xlink" width="100" zoomAndPan="magnify" viewBox="0 0 375 374.999991" height="100" preserveAspectRatio="xMidYMid meet" version="1.0"><defs><clipPath id="id1"><path d="M 2.902344 2.902344 L 371.902344 2.902344 L 371.902344 371.902344 L 2.902344 371.902344 Z M 2.902344 2.902344 " clip-rule="nonzero"/></clipPath><clipPath id="id2"><path d="M 53 89 L 322 89 L 322 371.902344 L 53 371.902344 Z M 53 89 " clip-rule="nonzero"/></clipPath></defs><g clip-path="url(#id1)"><path fill="rgb(13.328552%, 12.939453%, 13.729858%)" d="M 371.90625 187.402344 C 371.90625 246.726562 343.898438 299.515625 300.382812 333.273438 C 269.167969 357.492188 229.972656 371.902344 187.40625 371.902344 C 144.835938 371.902344 105.636719 357.492188 74.421875 333.273438 C 30.910156 299.515625 2.902344 246.726562 2.902344 187.402344 C 2.902344 85.503906 85.507812 2.902344 187.40625 2.902344 C 289.296875 2.902344 371.90625 85.503906 371.90625 187.402344 Z M 371.90625 187.402344 " fill-opacity="1" fill-rule="nonzero"/></g><g clip-path="url(#id2)"><path fill="rgb(0%, 41.958618%, 75.289917%)" d="M 321.449219 89.007812 L 300.382812 333.273438 C 269.167969 357.492188 229.972656 371.902344 187.40625 371.902344 C 144.835938 371.902344 105.636719 357.492188 74.421875 333.273438 L 53.359375 89.007812 Z M 321.449219 89.007812 " fill-opacity="1" fill-rule="nonzero"/></g><path fill="rgb(0%, 58.81958%, 86.268616%)" d="M 187.402344 111.972656 L 187.402344 367.070312 L 275.523438 342.191406 L 295.183594 111.972656 Z M 187.402344 111.972656 " fill-opacity="1" fill-rule="nonzero"/><path fill="rgb(100%, 100%, 100%)" d="M 265.265625 211.75 L 201.710938 211.75 L 268.121094 177.953125 L 270.992188 143.976562 L 103.8125 143.976562 L 106.738281 178.617188 L 173.84375 178.617188 L 109.457031 210.816406 L 112.453125 246.300781 L 227.3125 246.300781 L 223.546875 288.566406 L 187.402344 298.355469 L 149.746094 287.8125 L 148.808594 261.453125 L 113.734375 261.453125 L 118.121094 313.421875 L 187.402344 332.992188 L 256.683594 313.421875 L 265.265625 211.746094 Z M 265.265625 211.75 " fill-opacity="1" fill-rule="nonzero"/><path fill="rgb(100%, 100%, 100%)" d="M 122.074219 51.347656 L 122.074219 27.253906 L 156.714844 27.253906 L 156.714844 14.199219 L 109.519531 14.199219 L 109.519531 64.410156 L 156.714844 64.410156 L 156.714844 51.347656 Z M 122.074219 51.347656 " fill-opacity="1" fill-rule="nonzero"/><path fill="rgb(100%, 100%, 100%)" d="M 176.984375 33.84375 L 176.984375 27.816406 L 211.4375 27.816406 L 211.4375 14.199219 L 164.246094 14.199219 L 164.246094 45.324219 L 198.070312 45.324219 L 198.070312 51.347656 L 164.246094 51.347656 L 164.246094 64.410156 L 211.4375 64.410156 L 211.4375 33.84375 Z M 176.984375 33.84375 " fill-opacity="1" fill-rule="nonzero"/><path fill="rgb(100%, 100%, 100%)" d="M 230.824219 33.84375 L 230.824219 27.816406 L 265.28125 27.816406 L 265.28125 14.199219 L 218.085938 14.199219 L 218.085938 45.324219 L 251.914062 45.324219 L 251.914062 51.347656 L 218.085938 51.347656 L 218.085938 64.410156 L 265.28125 64.410156 L 265.28125 33.84375 Z M 230.824219 33.84375 " fill-opacity="1" fill-rule="nonzero"/></svg>