<svg xmlns="http://www.w3.org/2000/svg" xmlns:xlink="http://www.w3.org/1999/xlink" width="100" zoomAndPan="magnify" viewBox="0 0 375 374.999991" height="100" preserveAspectRatio="xMidYMid meet" version="1.0"><defs><clipPath id="id1"><path d="M 46.984375 8.601562 L 233 8.601562 L 233 285 L 46.984375 285 Z M 46.984375 8.601562 " clip-rule="nonzero"/></clipPath><clipPath id="id2"><path d="M 212 101 L 328.234375 101 L 328.234375 366.351562 L 212 366.351562 Z M 212 101 " clip-rule="nonzero"/></clipPath><clipPath id="id3"><path d="M 263 8.601562 L 323 8.601562 L 323 68 L 263 68 Z M 263 8.601562 " clip-rule="nonzero"/></clipPath></defs><g clip-path="url(#id1)"><path fill="rgb(16.859436%, 66.268921%, 46.669006%)" d="M 173.480469 8.328125 L 232.199219 8.328125 L 232.199219 277.011719 C 202.125 282.691406 179.980469 284.925781 156.027344 284.925781 C 84.3125 284.859375 46.984375 252.871094 46.984375 191.429688 C 46.984375 132.246094 86.582031 93.828125 147.941406 93.828125 C 157.46875 93.828125 164.71875 94.574219 173.480469 96.816406 Z M 175.542969 145.238281 C 168.664062 142.996094 163 142.246094 155.742188 142.246094 C 126.046875 142.246094 108.890625 160.335938 108.890625 192.023438 C 108.890625 222.886719 125.289062 239.933594 155.367188 239.933594 C 161.863281 239.933594 167.152344 239.558594 175.542969 238.4375 Z M 175.542969 145.238281 " fill-opacity="1" fill-rule="nonzero"/></g><g clip-path="url(#id2)"><path fill="rgb(16.859436%, 66.268921%, 46.669006%)" d="M 328.222656 101.042969 L 328.222656 235.566406 C 328.222656 281.898438 324.738281 304.179688 314.546875 323.378906 C 305.023438 341.855469 292.472656 353.496094 266.550781 366.359375 L 212.074219 340.722656 C 237.996094 328.695312 250.539062 318.066406 258.550781 301.847656 C 266.9375 285.265625 269.582031 266.066406 269.582031 215.539062 L 269.582031 101.042969 Z M 328.222656 101.042969 " fill-opacity="1" fill-rule="nonzero"/></g><g clip-path="url(#id3)"><path fill="rgb(16.859436%, 66.268921%, 46.669006%)" d="M 263.664062 8.328125 L 322.382812 8.328125 L 322.382812 67.894531 L 263.664062 67.894531 Z M 263.664062 8.328125 " fill-opacity="1" fill-rule="nonzero"/></g></svg>