<svg xmlns="http://www.w3.org/2000/svg" xmlns:xlink="http://www.w3.org/1999/xlink" width="300" zoomAndPan="magnify" viewBox="0 0 375 374.999991" height="300" preserveAspectRatio="xMidYMid meet" version="1.0"><defs><g><g id="id1"/></g></defs><g fill="rgb(0%, 0%, 0%)" fill-opacity="1"><g transform="translate(1.488286, 222.930931)"><g><path d="M 72.984375 -99.40625 L 72.984375 -72.5625 C 72.035156 -76.25 70.445312 -79.722656 68.21875 -82.984375 C 66 -86.253906 63.375 -89.097656 60.34375 -91.515625 C 57.320312 -93.929688 53.941406 -95.847656 50.203125 -97.265625 C 46.460938 -98.691406 42.554688 -99.40625 38.484375 -99.40625 Z M 37.0625 -49.703125 C 39.613281 -49.703125 42.117188 -50.148438 44.578125 -51.046875 C 47.046875 -51.941406 49.273438 -53.144531 51.265625 -54.65625 C 53.253906 -56.175781 54.957031 -57.976562 56.375 -60.0625 C 57.789062 -62.144531 58.832031 -64.367188 59.5 -66.734375 L 59.5 -32.65625 C 58.832031 -35.019531 57.789062 -37.242188 56.375 -39.328125 C 54.957031 -41.410156 53.253906 -43.207031 51.265625 -44.71875 C 49.273438 -46.238281 47.046875 -47.445312 44.578125 -48.34375 C 42.117188 -49.25 39.613281 -49.703125 37.0625 -49.703125 L 37.0625 -9.375 C 37.0625 -7.007812 37.890625 -4.851562 39.546875 -2.90625 C 41.203125 -0.96875 43.257812 0 45.71875 0 L 3.546875 0 C 5.910156 0 7.921875 -0.96875 9.578125 -2.90625 C 11.234375 -4.851562 12.0625 -7.007812 12.0625 -9.375 L 12.0625 -90.03125 C 12.0625 -92.394531 11.234375 -94.546875 9.578125 -96.484375 C 7.921875 -98.429688 5.910156 -99.40625 3.546875 -99.40625 L 37.0625 -99.40625 Z M 37.0625 -49.703125 "/></g></g></g><g fill="rgb(0%, 0%, 0%)" fill-opacity="1"><g transform="translate(78.024203, 222.930931)"><g><path d="M 30.671875 -7.8125 C 30.671875 -6.101562 31.238281 -4.441406 32.375 -2.828125 C 33.507812 -1.222656 34.882812 -0.28125 36.5 0 L 3.546875 0 C 5.160156 -0.28125 6.535156 -1.222656 7.671875 -2.828125 C 8.804688 -4.441406 9.375 -6.101562 9.375 -7.8125 L 9.375 -58.359375 C 9.375 -60.160156 8.804688 -61.84375 7.671875 -63.40625 C 6.535156 -64.96875 5.160156 -65.890625 3.546875 -66.171875 L 27.828125 -69.71875 L 28.265625 -69.71875 C 29.867188 -69.71875 30.671875 -68.914062 30.671875 -67.3125 Z M 20.015625 -77.390625 C 16.992188 -77.390625 14.414062 -78.453125 12.28125 -80.578125 C 10.15625 -82.710938 9.09375 -85.296875 9.09375 -88.328125 C 9.09375 -91.359375 10.15625 -93.960938 12.28125 -96.140625 C 14.414062 -98.316406 16.992188 -99.40625 20.015625 -99.40625 C 23.046875 -99.40625 25.648438 -98.316406 27.828125 -96.140625 C 30.003906 -93.960938 31.09375 -91.359375 31.09375 -88.328125 C 31.09375 -86.804688 30.804688 -85.382812 30.234375 -84.0625 C 29.671875 -82.738281 28.890625 -81.578125 27.890625 -80.578125 C 26.898438 -79.585938 25.71875 -78.804688 24.34375 -78.234375 C 22.976562 -77.671875 21.535156 -77.390625 20.015625 -77.390625 Z M 20.015625 -77.390625 "/></g></g></g><g fill="rgb(0%, 0%, 0%)" fill-opacity="1"><g transform="translate(118.067112, 222.930931)"><g><path d="M 30.671875 -41.46875 L 30.671875 -7.8125 C 30.671875 -6.101562 31.238281 -4.441406 32.375 -2.828125 C 33.507812 -1.222656 34.882812 -0.28125 36.5 0 L 3.546875 0 C 5.160156 -0.28125 6.535156 -1.222656 7.671875 -2.828125 C 8.804688 -4.441406 9.375 -6.101562 9.375 -7.8125 L 9.375 -58.359375 C 9.375 -60.160156 8.804688 -61.84375 7.671875 -63.40625 C 6.535156 -64.96875 5.160156 -65.890625 3.546875 -66.171875 L 27.828125 -69.71875 L 28.265625 -69.71875 C 29.867188 -69.71875 30.671875 -68.914062 30.671875 -67.3125 Z M 68.015625 -7.8125 C 68.015625 -6.101562 68.582031 -4.441406 69.71875 -2.828125 C 70.851562 -1.222656 72.226562 -0.28125 73.84375 0 L 40.890625 0 C 42.503906 -0.28125 43.878906 -1.222656 45.015625 -2.828125 C 46.148438 -4.441406 46.71875 -6.101562 46.71875 -7.8125 L 46.71875 -49.703125 C 46.71875 -51.492188 47.09375 -53.003906 47.84375 -54.234375 C 48.601562 -55.472656 49.457031 -56.585938 50.40625 -57.578125 C 51.351562 -58.578125 52.207031 -59.570312 52.96875 -60.5625 C 53.726562 -61.550781 54.109375 -62.710938 54.109375 -64.046875 C 54.109375 -65.648438 53.207031 -67.039062 51.40625 -68.21875 C 49.601562 -69.40625 47.285156 -70 44.453125 -70 C 41.421875 -70 38.71875 -69.617188 36.34375 -68.859375 C 33.976562 -68.109375 32.320312 -67.5 31.375 -67.03125 C 34.695312 -68.632812 38.460938 -69.835938 42.671875 -70.640625 C 46.878906 -71.453125 50.875 -71.429688 54.65625 -70.578125 C 58.445312 -69.722656 61.617188 -67.828125 64.171875 -64.890625 C 66.734375 -61.953125 68.015625 -57.550781 68.015625 -51.6875 Z M 68.015625 -7.8125 "/></g></g></g><g fill="rgb(0%, 0%, 0%)" fill-opacity="1"><g transform="translate(195.455008, 222.930931)"><g><path d="M 18.890625 -4.96875 C 19.078125 -3.644531 19.90625 -2.4375 21.375 -1.34375 C 22.84375 -0.257812 24.898438 0.375 27.546875 0.5625 C 24.234375 0.375 21.132812 -0.238281 18.25 -1.28125 C 15.363281 -2.320312 12.832031 -3.644531 10.65625 -5.25 C 8.476562 -6.863281 6.75 -8.734375 5.46875 -10.859375 C 4.1875 -12.992188 3.546875 -15.289062 3.546875 -17.75 C 3.546875 -20.78125 4.609375 -23.359375 6.734375 -25.484375 C 8.867188 -27.617188 11.453125 -28.6875 14.484375 -28.6875 C 15.992188 -28.6875 17.4375 -28.398438 18.8125 -27.828125 C 20.1875 -27.265625 21.367188 -26.484375 22.359375 -25.484375 C 23.359375 -24.492188 24.140625 -23.332031 24.703125 -22 C 25.273438 -20.675781 25.5625 -19.257812 25.5625 -17.75 C 25.5625 -16.039062 25.207031 -14.453125 24.5 -12.984375 C 23.789062 -11.523438 22.816406 -10.273438 21.578125 -9.234375 C 20.828125 -8.566406 20.164062 -7.878906 19.59375 -7.171875 C 19.03125 -6.460938 18.796875 -5.726562 18.890625 -4.96875 Z M 57.078125 -19.171875 C 57.273438 -16.328125 56.6875 -13.695312 55.3125 -11.28125 C 53.9375 -8.875 51.992188 -6.789062 49.484375 -5.03125 C 46.972656 -3.28125 44.0625 -1.882812 40.75 -0.84375 C 37.4375 0.1875 33.9375 0.703125 30.25 0.703125 C 32.800781 0.703125 34.972656 -0.332031 36.765625 -2.40625 C 38.566406 -4.488281 39.46875 -6.8125 39.46875 -9.375 C 39.46875 -11.738281 38.59375 -14.03125 36.84375 -16.25 C 35.09375 -18.476562 32.867188 -20.703125 30.171875 -22.921875 C 27.472656 -25.148438 24.582031 -27.445312 21.5 -29.8125 C 18.425781 -32.1875 15.539062 -34.648438 12.84375 -37.203125 C 10.144531 -39.753906 7.921875 -42.453125 6.171875 -45.296875 C 4.421875 -48.140625 3.546875 -51.21875 3.546875 -54.53125 C 3.546875 -57.363281 4.300781 -59.820312 5.8125 -61.90625 C 7.332031 -63.988281 9.25 -65.71875 11.5625 -67.09375 C 13.882812 -68.46875 16.46875 -69.484375 19.3125 -70.140625 C 22.15625 -70.804688 24.898438 -71.140625 27.546875 -71.140625 C 28.398438 -71.140625 29.179688 -71.140625 29.890625 -71.140625 C 30.597656 -71.140625 31.332031 -71.046875 32.09375 -70.859375 C 29.539062 -71.234375 27.335938 -70.640625 25.484375 -69.078125 C 23.640625 -67.515625 22.71875 -65.171875 22.71875 -62.046875 C 22.71875 -59.492188 23.519531 -57.128906 25.125 -54.953125 C 26.738281 -52.773438 28.773438 -50.644531 31.234375 -48.5625 C 33.703125 -46.476562 36.378906 -44.367188 39.265625 -42.234375 C 42.148438 -40.109375 44.867188 -37.882812 47.421875 -35.5625 C 49.984375 -33.25 52.160156 -30.742188 53.953125 -28.046875 C 55.753906 -25.347656 56.796875 -22.390625 57.078125 -19.171875 Z M 52.390625 -46.15625 C 52.015625 -48.238281 51.425781 -50.578125 50.625 -53.171875 C 49.820312 -55.773438 48.6875 -58.257812 47.21875 -60.625 C 45.75 -63 43.898438 -65.109375 41.671875 -66.953125 C 39.453125 -68.796875 36.734375 -70.050781 33.515625 -70.71875 C 35.023438 -70.4375 36.421875 -70.101562 37.703125 -69.71875 C 38.984375 -69.34375 40.191406 -68.960938 41.328125 -68.578125 C 42.460938 -68.203125 43.570312 -67.921875 44.65625 -67.734375 C 45.75 -67.546875 46.910156 -67.5 48.140625 -67.59375 C 48.898438 -67.6875 49.726562 -67.875 50.625 -68.15625 C 51.519531 -68.445312 52.109375 -68.78125 52.390625 -69.15625 Z M 52.390625 -46.15625 "/></g></g></g><g fill="rgb(0%, 0%, 0%)" fill-opacity="1"><g transform="translate(256.229358, 222.930931)"><g><path d="M 30.8125 -61.625 L 30.8125 -12.78125 C 30.8125 -10.601562 31.546875 -8.78125 33.015625 -7.3125 C 34.484375 -5.84375 36.257812 -5.109375 38.34375 -5.109375 C 39.757812 -5.109375 41.082031 -5.488281 42.3125 -6.25 C 41.457031 -5.582031 40.460938 -4.847656 39.328125 -4.046875 C 38.191406 -3.242188 36.914062 -2.484375 35.5 -1.765625 C 34.082031 -1.054688 32.519531 -0.46875 30.8125 0 C 29.113281 0.46875 27.269531 0.703125 25.28125 0.703125 C 23.101562 0.703125 21.039062 0.28125 19.09375 -0.5625 C 17.15625 -1.414062 15.472656 -2.578125 14.046875 -4.046875 C 12.628906 -5.515625 11.492188 -7.21875 10.640625 -9.15625 C 9.796875 -11.09375 9.375 -13.15625 9.375 -15.34375 L 9.375 -62.046875 C 9.375 -63.753906 8.828125 -65.390625 7.734375 -66.953125 C 6.648438 -68.515625 5.253906 -69.484375 3.546875 -69.859375 C 8.941406 -70.242188 13.957031 -71.546875 18.59375 -73.765625 C 23.238281 -75.992188 27.3125 -78.90625 30.8125 -82.5 L 30.8125 -69.859375 L 36.5 -69.859375 C 34.882812 -69.484375 33.53125 -68.515625 32.4375 -66.953125 C 31.351562 -65.390625 30.8125 -63.753906 30.8125 -62.046875 Z M 30.8125 -61.625 "/></g></g></g><g fill="rgb(0%, 0%, 0%)" fill-opacity="1"><g transform="translate(302.378112, 222.930931)"><g><path d="M 18.890625 -39.90625 C 15.859375 -39.90625 13.273438 -40.96875 11.140625 -43.09375 C 9.015625 -45.226562 7.953125 -47.8125 7.953125 -50.84375 C 7.953125 -53.207031 8.660156 -55.523438 10.078125 -57.796875 C 11.503906 -60.066406 13.351562 -62.097656 15.625 -63.890625 C 17.894531 -65.691406 20.445312 -67.207031 23.28125 -68.4375 C 26.125 -69.675781 28.96875 -70.4375 31.8125 -70.71875 C 29.25 -70.332031 27.28125 -69.570312 25.90625 -68.4375 C 24.539062 -67.300781 23.859375 -65.976562 23.859375 -64.46875 C 23.859375 -63.425781 24.140625 -62.40625 24.703125 -61.40625 C 25.273438 -60.414062 25.988281 -59.398438 26.84375 -58.359375 C 28.925781 -56.460938 29.96875 -53.957031 29.96875 -50.84375 C 29.96875 -47.8125 28.878906 -45.226562 26.703125 -43.09375 C 24.523438 -40.96875 21.921875 -39.90625 18.890625 -39.90625 Z M 61.765625 -10.65625 C 61.765625 -8.945312 62.332031 -7.285156 63.46875 -5.671875 C 64.601562 -4.066406 65.976562 -3.125 67.59375 -2.84375 L 43.171875 0.703125 L 42.890625 0.703125 C 42.128906 0.703125 41.507812 0.46875 41.03125 0 C 40.5625 -0.46875 40.328125 -1.082031 40.328125 -1.84375 L 40.328125 -42.890625 C 39.191406 -42.316406 37.796875 -41.601562 36.140625 -40.75 C 34.484375 -39.894531 32.875 -38.757812 31.3125 -37.34375 C 29.75 -35.925781 28.375 -34.128906 27.1875 -31.953125 C 26.007812 -29.773438 25.273438 -27.03125 24.984375 -23.71875 C 24.703125 -20.3125 24.960938 -17.304688 25.765625 -14.703125 C 26.578125 -12.097656 27.738281 -9.988281 29.25 -8.375 C 30.769531 -6.769531 32.566406 -5.632812 34.640625 -4.96875 C 36.722656 -4.300781 38.523438 -4.347656 40.046875 -5.109375 C 38.335938 -3.878906 36.0625 -2.601562 33.21875 -1.28125 C 30.382812 0.0390625 27.023438 0.703125 23.140625 0.703125 C 18.691406 0.703125 14.671875 -0.476562 11.078125 -2.84375 C 7.484375 -5.207031 5.164062 -8.378906 4.125 -12.359375 C 2.976562 -16.421875 3.375 -20.367188 5.3125 -24.203125 C 7.257812 -28.046875 10.222656 -31.195312 14.203125 -33.65625 C 16.285156 -34.882812 18.816406 -36.085938 21.796875 -37.265625 C 24.773438 -38.453125 27.945312 -39.613281 31.3125 -40.75 C 34.675781 -41.882812 38.015625 -43.019531 41.328125 -44.15625 C 44.640625 -45.289062 47.644531 -46.519531 50.34375 -47.84375 C 53.039062 -49.175781 55.265625 -50.597656 57.015625 -52.109375 C 58.765625 -53.628906 59.6875 -55.332031 59.78125 -57.21875 C 59.875 -58.363281 59.660156 -59.570312 59.140625 -60.84375 C 58.617188 -62.125 57.882812 -63.285156 56.9375 -64.328125 C 59.5 -61.867188 61.0625 -59.03125 61.625 -55.8125 C 61.71875 -55.425781 61.765625 -55.046875 61.765625 -54.671875 C 61.765625 -54.296875 61.765625 -53.914062 61.765625 -53.53125 Z M 61.765625 -10.65625 "/></g></g></g></svg>