<svg xmlns="http://www.w3.org/2000/svg" xmlns:xlink="http://www.w3.org/1999/xlink" width="100" zoomAndPan="magnify" viewBox="0 0 375 374.999991" height="100" preserveAspectRatio="xMidYMid meet" version="1.0"><defs><clipPath id="id1"><path d="M 1.199219 5.742188 L 373.949219 5.742188 L 373.949219 369 L 1.199219 369 Z M 1.199219 5.742188 " clip-rule="nonzero"/></clipPath></defs><g clip-path="url(#id1)"><path fill="rgb(100%, 100%, 100%)" d="M 187.574219 5.742188 C 84.777344 5.742188 1.421875 89.0625 1.421875 191.84375 C 1.421875 274.078125 54.757812 343.839844 128.722656 368.4375 C 138.027344 370.167969 141.445312 364.398438 141.445312 359.484375 C 141.445312 355.046875 141.269531 340.390625 141.191406 324.835938 C 89.402344 336.101562 78.472656 302.882812 78.472656 302.882812 C 70.003906 281.363281 57.804688 275.648438 57.804688 275.648438 C 40.914062 264.105469 59.078125 264.335938 59.078125 264.335938 C 77.769531 265.644531 87.613281 283.515625 87.613281 283.515625 C 104.21875 311.96875 131.164062 303.738281 141.785156 298.984375 C 143.457031 286.960938 148.277344 278.746094 153.601562 274.09375 C 112.257812 269.398438 68.792969 253.433594 68.792969 182.132812 C 68.792969 161.804688 76.0625 145.207031 87.972656 132.171875 C 86.039062 127.484375 79.667969 108.558594 89.773438 82.921875 C 89.773438 82.921875 105.40625 77.921875 140.980469 102 C 155.824219 97.875 171.75 95.808594 187.574219 95.738281 C 203.394531 95.808594 219.335938 97.875 234.214844 102 C 269.742188 77.921875 285.347656 82.921875 285.347656 82.921875 C 295.484375 108.558594 289.113281 127.484375 287.179688 132.171875 C 299.105469 145.207031 306.332031 161.804688 306.332031 182.132812 C 306.332031 253.605469 262.789062 269.339844 221.328125 273.949219 C 228.003906 279.71875 233.964844 291.046875 233.964844 308.421875 C 233.964844 333.3125 233.746094 353.363281 233.746094 359.484375 C 233.746094 364.441406 237.09375 370.242188 246.53125 368.410156 C 320.453125 343.78125 373.726562 274.050781 373.726562 191.84375 C 373.726562 89.0625 290.378906 5.742188 187.574219 5.742188 Z M 71.140625 270.851562 C 70.730469 271.78125 69.277344 272.058594 67.949219 271.417969 C 66.601562 270.808594 65.84375 269.558594 66.28125 268.625 C 66.679688 267.667969 68.136719 267.40625 69.484375 268.042969 C 70.839844 268.65625 71.609375 269.921875 71.140625 270.851562 Z M 80.296875 279.023438 C 79.410156 279.835938 77.675781 279.457031 76.496094 278.164062 C 75.277344 276.855469 75.050781 275.125 75.949219 274.296875 C 76.867188 273.46875 78.550781 273.859375 79.769531 275.15625 C 80.988281 276.464844 81.226562 278.191406 80.296875 279.023438 Z M 86.578125 289.476562 C 85.4375 290.261719 83.574219 289.519531 82.421875 287.863281 C 81.28125 286.203125 81.28125 284.226562 82.445312 283.425781 C 83.601562 282.628906 85.4375 283.355469 86.605469 284.996094 C 87.746094 286.667969 87.746094 288.660156 86.578125 289.476562 Z M 97.203125 301.574219 C 96.183594 302.691406 94.007812 302.402344 92.417969 300.859375 C 90.789062 299.363281 90.339844 297.226562 91.363281 296.105469 C 92.394531 294.984375 94.582031 295.292969 96.183594 296.816406 C 97.796875 298.316406 98.292969 300.46875 97.203125 301.574219 Z M 110.933594 305.65625 C 110.484375 307.113281 108.390625 307.78125 106.28125 307.15625 C 104.175781 306.53125 102.800781 304.816406 103.222656 303.347656 C 103.660156 301.878906 105.765625 301.179688 107.886719 301.847656 C 109.992188 302.488281 111.371094 304.175781 110.933594 305.65625 Z M 126.558594 307.386719 C 126.613281 308.929688 124.824219 310.195312 122.613281 310.222656 C 120.386719 310.28125 118.585938 309.03125 118.558594 307.519531 C 118.558594 305.976562 120.308594 304.714844 122.535156 304.683594 C 124.746094 304.640625 126.558594 305.863281 126.558594 307.386719 Z M 141.910156 306.808594 C 142.175781 308.304688 140.636719 309.84375 138.4375 310.253906 C 136.277344 310.644531 134.277344 309.714844 134.003906 308.230469 C 133.734375 306.703125 135.300781 305.164062 137.457031 304.769531 C 139.660156 304.378906 141.628906 305.28125 141.910156 306.808594 Z M 141.910156 306.808594 " fill-opacity="1" fill-rule="nonzero"/></g></svg>