<svg xmlns="http://www.w3.org/2000/svg" xmlns:xlink="http://www.w3.org/1999/xlink" width="100" zoomAndPan="magnify" viewBox="0 0 375 374.999991" height="100" preserveAspectRatio="xMidYMid meet" version="1.0"><defs><clipPath id="id1"><path d="M 19 1.371094 L 354 1.371094 L 354 373.371094 L 19 373.371094 Z M 19 1.371094 " clip-rule="nonzero"/></clipPath></defs><g clip-path="url(#id1)"><path fill="rgb(26.269531%, 0%, 59.21936%)" d="M 19.984375 339.910156 C 19.984375 358.476562 34.832031 373.371094 53.429688 373.371094 L 320.050781 373.371094 C 338.636719 373.371094 353.480469 358.476562 353.480469 339.910156 L 353.480469 34.851562 C 353.496094 16.253906 338.652344 1.371094 320.050781 1.371094 L 53.429688 1.371094 C 34.832031 1.371094 19.984375 16.253906 19.984375 34.851562 Z M 38.570312 34.851562 C 38.570312 26.484375 45.066406 19.957031 53.429688 19.957031 L 320.050781 19.957031 C 328.398438 19.957031 334.914062 26.484375 334.914062 34.851562 L 334.914062 339.910156 C 334.914062 348.261719 328.398438 354.789062 320.050781 354.789062 L 53.429688 354.789062 C 45.066406 354.789062 38.570312 348.261719 38.570312 339.910156 Z M 38.570312 34.851562 " fill-opacity="1" fill-rule="nonzero"/></g><path fill="rgb(26.269531%, 0%, 59.21936%)" d="M 208.589844 186.441406 C 227.171875 186.441406 231.808594 196.671875 231.808594 205.972656 L 231.808594 317.574219 L 268.972656 317.574219 L 268.972656 205.972656 C 269.890625 203.199219 269.890625 182.707031 254.097656 166.914062 C 246.683594 159.472656 232.738281 150.171875 209.519531 150.171875 C 184.421875 150.171875 158.410156 156.699219 139.84375 163.191406 L 139.84375 57.171875 L 102.675781 57.171875 L 102.675781 218.0625 L 128.691406 205.972656 C 128.691406 205.972656 171.421875 186.441406 208.589844 186.441406 Z M 208.589844 186.441406 " fill-opacity="1" fill-rule="nonzero"/><path fill="rgb(26.269531%, 0%, 59.21936%)" d="M 269.890625 57.171875 L 232.738281 57.171875 C 229 78.546875 219.726562 98.09375 204.851562 117.621094 L 242.015625 117.621094 C 258.738281 98.09375 267.097656 78.546875 269.890625 57.171875 Z M 269.890625 57.171875 " fill-opacity="1" fill-rule="nonzero"/><path fill="rgb(26.269531%, 0%, 59.21936%)" d="M 103.59375 317.558594 L 145.394531 280.371094 L 103.59375 243.171875 Z M 103.59375 317.558594 " fill-opacity="1" fill-rule="nonzero"/></svg>