<svg xmlns="http://www.w3.org/2000/svg" xmlns:xlink="http://www.w3.org/1999/xlink" width="100" zoomAndPan="magnify" viewBox="0 0 375 374.999991" height="100" preserveAspectRatio="xMidYMid meet" version="1.0"><defs><clipPath id="id1"><path d="M 56.332031 75 L 318.832031 75 L 318.832031 372.269531 L 56.332031 372.269531 Z M 56.332031 75 " clip-rule="nonzero"/></clipPath><clipPath id="id2"><path d="M 80 2.519531 L 130 2.519531 L 130 53 L 80 53 Z M 80 2.519531 " clip-rule="nonzero"/></clipPath><clipPath id="id3"><path d="M 136 2.519531 L 183 2.519531 L 183 53 L 136 53 Z M 136 2.519531 " clip-rule="nonzero"/></clipPath><clipPath id="id4"><path d="M 190 2.519531 L 247 2.519531 L 247 53 L 190 53 Z M 190 2.519531 " clip-rule="nonzero"/></clipPath><clipPath id="id5"><path d="M 254 2.519531 L 295 2.519531 L 295 53 L 254 53 Z M 254 2.519531 " clip-rule="nonzero"/></clipPath></defs><g clip-path="url(#id1)"><path fill="rgb(89.408875%, 30.198669%, 14.898682%)" d="M 318.882812 75.117188 L 294.96875 342.882812 L 187.46875 372.664062 L 80.265625 342.921875 L 56.378906 75.117188 L 318.878906 75.113281 L 318.886719 75.113281 Z M 318.882812 75.117188 " fill-opacity="1" fill-rule="nonzero"/></g><path fill="rgb(94.509888%, 39.608765%, 16.079712%)" d="M 187.632812 349.898438 L 274.503906 325.832031 L 294.9375 97.019531 L 187.632812 97.015625 Z M 187.632812 349.898438 " fill-opacity="1" fill-rule="nonzero"/><path fill="rgb(92.158508%, 92.158508%, 92.158508%)" d="M 141.144531 162.703125 L 187.632812 162.703125 L 187.632812 129.855469 L 105.226562 129.855469 L 106.011719 138.667969 L 114.089844 229.183594 L 187.632812 229.183594 L 187.632812 196.34375 L 144.144531 196.34375 Z M 141.144531 162.703125 " fill-opacity="1" fill-rule="nonzero"/><path fill="rgb(92.158508%, 92.158508%, 92.158508%)" d="M 148.550781 245.605469 L 115.558594 245.605469 L 120.164062 297.179688 L 187.480469 315.859375 L 187.632812 315.816406 L 187.632812 281.640625 L 187.488281 281.683594 L 150.890625 271.800781 Z M 148.550781 245.605469 " fill-opacity="1" fill-rule="nonzero"/><g clip-path="url(#id2)"><path fill="rgb(100%, 100%, 100%)" d="M 80.804688 2.339844 L 97.503906 2.339844 L 97.503906 18.832031 L 112.78125 18.832031 L 112.78125 2.339844 L 129.480469 2.339844 L 129.480469 52.28125 L 112.78125 52.28125 L 112.78125 35.558594 L 97.503906 35.558594 L 97.503906 52.28125 L 80.804688 52.28125 Z M 80.804688 2.339844 " fill-opacity="1" fill-rule="nonzero"/></g><g clip-path="url(#id3)"><path fill="rgb(100%, 100%, 100%)" d="M 151.445312 18.902344 L 136.742188 18.902344 L 136.742188 2.339844 L 182.859375 2.339844 L 182.859375 18.902344 L 168.144531 18.902344 L 168.144531 52.28125 L 151.445312 52.28125 Z M 151.445312 18.902344 " fill-opacity="1" fill-rule="nonzero"/></g><g clip-path="url(#id4)"><path fill="rgb(100%, 100%, 100%)" d="M 190.175781 2.339844 L 207.585938 2.339844 L 218.296875 19.886719 L 229 2.339844 L 246.421875 2.339844 L 246.421875 52.28125 L 229.792969 52.28125 L 229.792969 27.527344 L 218.296875 45.28125 L 218.007812 45.28125 L 206.515625 27.527344 L 206.515625 52.28125 L 190.175781 52.28125 Z M 190.175781 2.339844 " fill-opacity="1" fill-rule="nonzero"/></g><g clip-path="url(#id5)"><path fill="rgb(100%, 100%, 100%)" d="M 254.734375 2.339844 L 271.4375 2.339844 L 271.4375 35.773438 L 294.929688 35.773438 L 294.929688 52.28125 L 254.734375 52.28125 Z M 254.734375 2.339844 " fill-opacity="1" fill-rule="nonzero"/></g><path fill="rgb(100%, 100%, 100%)" d="M 187.519531 229.183594 L 227.992188 229.183594 L 224.171875 271.78125 L 187.519531 281.671875 L 187.519531 315.835938 L 254.890625 297.179688 L 255.382812 291.628906 L 263.109375 205.15625 L 263.914062 196.34375 L 187.519531 196.34375 Z M 187.519531 229.183594 " fill-opacity="1" fill-rule="nonzero"/><path fill="rgb(100%, 100%, 100%)" d="M 187.519531 162.621094 L 187.519531 162.703125 L 266.898438 162.703125 L 267.554688 155.320312 L 269.058594 138.667969 L 269.839844 129.855469 L 187.519531 129.855469 Z M 187.519531 162.621094 " fill-opacity="1" fill-rule="nonzero"/></svg>