<svg xmlns="http://www.w3.org/2000/svg" xmlns:xlink="http://www.w3.org/1999/xlink" width="100" zoomAndPan="magnify" viewBox="0 0 375 374.999991" height="100" preserveAspectRatio="xMidYMid meet" version="1.0"><defs><clipPath id="id1"><path d="M 54.546875 73 L 320.796875 73 L 320.796875 375 L 54.546875 375 Z M 54.546875 73 " clip-rule="nonzero"/></clipPath></defs><g clip-path="url(#id1)"><path fill="rgb(89.408875%, 30.198669%, 14.898682%)" d="M 320.847656 73.628906 L 296.59375 345.171875 L 187.554688 375.375 L 78.820312 345.210938 L 54.59375 73.628906 L 320.84375 73.625 L 320.851562 73.625 Z M 320.847656 73.628906 " fill-opacity="1" fill-rule="nonzero"/></g><path fill="rgb(94.509888%, 39.608765%, 16.079712%)" d="M 187.722656 352.289062 L 275.832031 327.882812 L 296.558594 95.835938 L 187.722656 95.835938 Z M 187.722656 352.289062 " fill-opacity="1" fill-rule="nonzero"/><path fill="rgb(92.158508%, 92.158508%, 92.158508%)" d="M 140.566406 162.449219 L 187.722656 162.449219 L 187.722656 129.140625 L 104.140625 129.140625 L 104.9375 138.078125 L 113.128906 229.867188 L 187.722656 229.867188 L 187.722656 196.566406 L 143.613281 196.566406 Z M 140.566406 162.449219 " fill-opacity="1" fill-rule="nonzero"/><path fill="rgb(92.158508%, 92.158508%, 92.158508%)" d="M 148.082031 246.523438 L 114.621094 246.523438 L 119.289062 298.828125 L 187.566406 317.765625 L 187.722656 317.726562 L 187.722656 283.066406 L 187.578125 283.109375 L 150.453125 273.085938 Z M 148.082031 246.523438 " fill-opacity="1" fill-rule="nonzero"/><path fill="rgb(0%, 0%, 0%)" d="M 79.367188 -0.175781 L 96.304688 -0.175781 L 96.304688 16.546875 L 111.800781 16.546875 L 111.800781 -0.175781 L 128.742188 -0.175781 L 128.742188 50.46875 L 111.800781 50.46875 L 111.800781 33.507812 L 96.304688 33.507812 L 96.304688 50.46875 L 79.367188 50.46875 Z M 79.367188 -0.175781 " fill-opacity="1" fill-rule="nonzero"/><path fill="rgb(0%, 0%, 0%)" d="M 151.015625 16.617188 L 136.105469 16.617188 L 136.105469 -0.175781 L 182.878906 -0.175781 L 182.878906 16.617188 L 167.953125 16.617188 L 167.953125 50.46875 L 151.015625 50.46875 Z M 151.015625 16.617188 " fill-opacity="1" fill-rule="nonzero"/><path fill="rgb(0%, 0%, 0%)" d="M 190.300781 -0.175781 L 207.960938 -0.175781 L 218.824219 17.617188 L 229.679688 -0.175781 L 247.351562 -0.175781 L 247.351562 50.46875 L 230.484375 50.46875 L 230.484375 25.367188 L 218.824219 43.371094 L 218.53125 43.371094 L 206.875 25.367188 L 206.875 50.46875 L 190.300781 50.46875 Z M 190.300781 -0.175781 " fill-opacity="1" fill-rule="nonzero"/><path fill="rgb(0%, 0%, 0%)" d="M 255.78125 -0.175781 L 272.722656 -0.175781 L 272.722656 33.726562 L 296.550781 33.726562 L 296.550781 50.46875 L 255.78125 50.46875 Z M 255.78125 -0.175781 " fill-opacity="1" fill-rule="nonzero"/><path fill="rgb(100%, 100%, 100%)" d="M 187.609375 229.867188 L 228.65625 229.867188 L 224.785156 273.066406 L 187.609375 283.097656 L 187.609375 317.746094 L 255.9375 298.828125 L 256.441406 293.195312 L 264.277344 205.503906 L 265.09375 196.566406 L 187.609375 196.566406 Z M 187.609375 229.867188 " fill-opacity="1" fill-rule="nonzero"/><path fill="rgb(100%, 100%, 100%)" d="M 187.609375 162.367188 L 187.609375 162.449219 L 268.121094 162.449219 L 268.789062 154.960938 L 270.3125 138.078125 L 271.105469 129.140625 L 187.609375 129.140625 Z M 187.609375 162.367188 " fill-opacity="1" fill-rule="nonzero"/></svg>