<svg xmlns="http://www.w3.org/2000/svg" xmlns:xlink="http://www.w3.org/1999/xlink" width="100" zoomAndPan="magnify" viewBox="0 0 375 374.999991" height="100" preserveAspectRatio="xMidYMid meet" version="1.0"><defs><clipPath id="id1"><path d="M 2.375 2.375 L 372.875 2.375 L 372.875 372.875 L 2.375 372.875 Z M 2.375 2.375 " clip-rule="nonzero"/></clipPath></defs><g clip-path="url(#id1)"><path fill="rgb(89.408875%, 72.938538%, 25.878906%)" d="M 372.875 187.621094 C 372.875 211.757812 368.261719 234.8125 359.863281 255.964844 C 355.367188 267.273438 349.796875 278.039062 343.261719 288.125 C 335.128906 300.707031 325.503906 312.238281 314.644531 322.464844 C 308.285156 328.460938 301.511719 334 294.355469 339.050781 C 264.1875 360.359375 227.371094 372.875 187.625 372.875 C 147.875 372.875 111.058594 360.359375 80.886719 339.050781 C 71.933594 332.730469 63.574219 325.648438 55.902344 317.875 C 22.804688 284.414062 2.375 238.402344 2.375 187.621094 C 2.375 136.847656 22.804688 90.828125 55.902344 57.371094 C 64.027344 49.148438 72.929688 41.683594 82.480469 35.089844 C 112.34375 14.457031 148.570312 2.371094 187.625 2.371094 C 226.679688 2.371094 262.902344 14.457031 292.769531 35.089844 C 300.066406 40.121094 306.976562 45.667969 313.457031 51.679688 C 324.808594 62.175781 334.832031 74.082031 343.265625 87.121094 C 349.796875 97.203125 355.371094 107.96875 359.863281 119.285156 C 368.261719 140.429688 372.875 163.488281 372.875 187.621094 Z M 372.875 187.621094 " fill-opacity="1" fill-rule="nonzero"/></g><path fill="rgb(94.898987%, 94.898987%, 94.898987%)" d="M 285.351562 170.957031 C 280.195312 156.003906 259.050781 156.003906 254.929688 168.378906 C 250.804688 180.753906 264.726562 187.972656 286.382812 195.191406 C 308.039062 202.410156 321.445312 221.492188 318.867188 238.503906 C 316.289062 255.519531 309.070312 277.691406 266.273438 277.691406 C 239.527344 277.691406 224.660156 260.972656 217.273438 248.4375 L 241.523438 233.863281 C 241.523438 233.863281 249.773438 251.394531 265.242188 251.394531 C 280.710938 251.394531 286.898438 246.242188 286.898438 234.378906 C 286.898438 219.941406 236.882812 214.789062 229.148438 190.035156 C 221.414062 165.285156 231.722656 130.222656 267.816406 132.800781 C 290.378906 134.410156 303.066406 145.492188 309.414062 153.570312 Z M 285.351562 170.957031 " fill-opacity="1" fill-rule="nonzero"/><path fill="rgb(94.898987%, 94.898987%, 94.898987%)" d="M 172.941406 135.378906 L 172.941406 234.378906 C 172.941406 246.242188 162.632812 252.429688 152.320312 250.363281 C 142.003906 248.300781 137.367188 235.925781 137.367188 235.925781 L 113.644531 251.914062 C 113.644531 251.914062 118.804688 275.628906 151.289062 277.691406 C 183.773438 279.753906 202.332031 260.164062 202.332031 243.664062 L 202.332031 135.378906 Z M 172.941406 135.378906 " fill-opacity="1" fill-rule="nonzero"/><path fill="rgb(94.898987%, 94.898987%, 94.898987%)" d="M 55.902344 35.089844 L 55.902344 317.875 C 63.574219 325.648438 71.933594 332.730469 80.886719 339.050781 L 294.355469 339.050781 C 301.511719 334 308.285156 328.460938 314.644531 322.464844 L 72.488281 322.464844 L 72.488281 51.679688 L 343.261719 51.679688 L 343.261719 288.125 C 349.796875 278.039062 355.367188 267.273438 359.863281 255.964844 L 359.863281 35.089844 Z M 55.902344 35.089844 " fill-opacity="1" fill-rule="nonzero"/><path fill="rgb(24.708557%, 29.019165%, 26.269531%)" d="M 95.339844 247.785156 C 95.339844 264.019531 82.183594 277.175781 65.949219 277.175781 C 49.71875 277.175781 36.558594 264.019531 36.558594 247.785156 C 36.558594 231.558594 49.71875 218.398438 65.949219 218.398438 C 82.183594 218.398438 95.339844 231.558594 95.339844 247.785156 Z M 95.339844 247.785156 " fill-opacity="1" fill-rule="nonzero"/></svg>