<svg xmlns="http://www.w3.org/2000/svg" xmlns:xlink="http://www.w3.org/1999/xlink" width="100" zoomAndPan="magnify" viewBox="0 0 375 374.999991" height="100" preserveAspectRatio="xMidYMid meet" version="1.0"><defs><clipPath id="id1"><path d="M 12 2.949219 L 371.949219 2.949219 L 371.949219 349 L 12 349 Z M 12 2.949219 " clip-rule="nonzero"/></clipPath></defs><g clip-path="url(#id1)"><path fill="rgb(3.138733%, 40.779114%, 67.449951%)" d="M 35.40625 83.757812 C 3.667969 129.40625 7.59375 188.785156 31.863281 237.414062 C 32.425781 238.582031 33.042969 239.726562 33.636719 240.871094 L 34.757812 243.058594 C 34.980469 243.484375 35.226562 243.898438 35.464844 244.3125 C 35.878906 245.097656 36.304688 245.816406 36.730469 246.578125 L 39.054688 250.550781 L 40.375 252.726562 L 43.066406 256.929688 L 44.210938 258.703125 C 45.480469 260.585938 46.769531 262.472656 48.105469 264.3125 L 48.867188 265.34375 C 50.023438 266.933594 51.203125 268.503906 52.410156 270.054688 L 53.757812 271.757812 L 57.03125 275.796875 L 58.289062 277.300781 C 59.78125 279.058594 61.316406 280.808594 62.851562 282.515625 C 63.011719 282.683594 63.078125 282.738281 63.121094 282.804688 C 64.644531 284.457031 66.195312 286.089844 67.765625 287.695312 L 69.257812 289.199219 L 72.957031 292.832031 L 74.472656 294.289062 C 76.136719 295.863281 77.832031 297.402344 79.554688 298.910156 L 85.117188 303.621094 L 87.023438 305.148438 L 90.871094 308.152344 L 92.921875 309.722656 L 97.242188 312.820312 L 99.257812 314.242188 C 100.640625 315.195312 102.039062 316.105469 103.453125 317.015625 L 105.269531 318.226562 C 107.4375 319.601562 109.625 320.9375 111.832031 322.242188 L 113.648438 323.363281 L 118.585938 326.121094 C 119.480469 326.605469 120.402344 327.0625 121.308594 327.523438 L 124.832031 329.351562 L 125.648438 329.742188 L 127.109375 330.4375 L 132.695312 333.019531 L 133.871094 333.546875 C 136.027344 334.484375 138.199219 335.386719 140.386719 336.25 L 141.957031 336.878906 L 148.105469 339.152344 L 148.890625 339.421875 C 151.160156 340.203125 153.4375 340.953125 155.730469 341.667969 L 157.390625 342.160156 C 159.632812 342.867188 162.054688 343.730469 164.457031 344.15625 C 318.046875 372.164062 362.640625 251.851562 362.640625 251.851562 C 325.179688 300.660156 258.667969 313.539062 195.523438 299.203125 C 193.136719 298.664062 190.8125 297.925781 188.492188 297.230469 L 186.742188 296.703125 C 184.472656 296.003906 182.214844 295.269531 179.96875 294.492188 L 179.039062 294.15625 C 177.039062 293.445312 175.050781 292.710938 173.070312 291.945312 L 171.386719 291.273438 C 169.21875 290.421875 167.070312 289.523438 164.9375 288.582031 L 163.648438 288.019531 L 158.210938 285.488281 L 156.640625 284.734375 C 155.226562 284.0625 153.835938 283.3125 152.433594 282.492188 L 149.628906 281.035156 C 147.925781 280.136719 146.265625 279.171875 144.582031 278.207031 L 142.878906 277.253906 C 140.667969 275.949219 138.480469 274.613281 136.316406 273.238281 C 135.722656 272.859375 135.136719 272.453125 134.542969 272.0625 L 129.878906 268.953125 C 129.363281 268.617188 128.757812 268.238281 128.375 267.898438 L 123.957031 264.703125 L 121.992188 263.222656 L 118.011719 260.105469 L 116.238281 258.679688 L 111.28125 254.496094 C 111.101562 254.339844 110.914062 254.191406 110.722656 254.046875 L 105.507812 249.304688 L 104.046875 247.890625 L 100.324219 244.191406 L 98.867188 242.730469 C 97.296875 241.128906 95.769531 239.511719 94.378906 237.863281 C 94.300781 237.785156 94.222656 237.707031 94.15625 237.617188 C 92.566406 235.875 91.011719 234.101562 89.492188 232.300781 L 88.367188 230.84375 L 85.003906 226.691406 L 83.882812 225.15625 L 80 219.996094 C 44.804688 172.308594 32.222656 106.382812 60.195312 52.320312 M 133.996094 45.3125 C 111.023438 78.363281 112.269531 122.699219 130.179688 157.558594 C 133.1875 163.441406 136.574219 169.09375 140.34375 174.515625 C 143.785156 179.453125 147.597656 185.316406 152.164062 189.277344 C 153.824219 191.105469 155.550781 192.867188 157.324219 194.628906 L 158.667969 195.972656 C 160.382812 197.644531 162.136719 199.273438 163.929688 200.863281 C 164.007812 200.917969 164.0625 200.996094 164.152344 201.054688 C 166.195312 202.847656 168.257812 204.417969 170.355469 206.191406 L 171.746094 207.277344 C 173.851562 208.902344 175.996094 210.46875 178.183594 211.976562 L 178.375 212.113281 C 179.339844 212.785156 180.328125 213.402344 181.3125 214.054688 C 181.785156 214.355469 182.234375 214.679688 182.703125 214.972656 C 184.273438 215.980469 185.863281 216.949219 187.472656 217.890625 L 188.144531 218.28125 L 192.363281 220.523438 C 192.855469 220.804688 193.484375 221.039062 193.863281 221.308594 L 196.8125 222.835938 C 196.960938 222.914062 197.117188 222.96875 197.261719 223.035156 C 199.285156 224.042969 201.335938 224.996094 203.410156 225.898438 L 204.753906 226.457031 C 206.425781 227.167969 208.109375 227.847656 209.800781 228.5 L 211.957031 229.285156 C 213.492188 229.84375 215.035156 230.378906 216.585938 230.886719 L 218.683594 231.5625 C 220.894531 232.234375 223.171875 233.132812 225.382812 233.5 C 343.964844 253.152344 371.34375 161.71875 371.34375 161.71875 C 346.667969 197.273438 298.890625 214.210938 247.878906 200.976562 C 245.625 200.382812 243.386719 199.734375 241.160156 199.035156 C 240.488281 198.832031 239.816406 198.609375 239.144531 198.382812 L 234.433594 196.769531 L 232.1875 195.984375 C 230.496094 195.332031 228.8125 194.652344 227.140625 193.941406 L 225.773438 193.382812 C 223.6875 192.476562 221.621094 191.519531 219.582031 190.511719 L 216.476562 188.941406 L 214.679688 188.019531 C 213.363281 187.304688 212.054688 186.566406 210.753906 185.8125 L 209.8125 185.285156 C 208.207031 184.34375 206.625 183.371094 205.058594 182.367188 C 204.574219 182.066406 204.105469 181.730469 203.621094 181.414062 L 200.539062 179.375 C 198.367188 177.867188 196.234375 176.304688 194.144531 174.6875 L 192.6875 173.5625 C 170.253906 155.933594 152.667969 131.839844 144.257812 104.542969 C 135.441406 76.222656 137.335938 44.425781 152.613281 18.628906 M 216.902344 16.578125 C 203.375 36.597656 202.03125 61.25 211.429688 83.253906 C 221.332031 106.617188 241.632812 124.933594 265.332031 133.726562 L 268.269531 134.847656 L 269.570312 135.25 L 273.800781 136.371094 C 339.277344 149.023438 357.019531 102.769531 361.765625 95.960938 C 346.207031 118.359375 320.066406 123.730469 287.988281 115.949219 C 285.453125 115.332031 282.671875 114.410156 280.226562 113.546875 C 277.085938 112.433594 274.011719 111.160156 271.007812 109.722656 C 265.292969 106.976562 259.90625 103.6875 254.84375 99.863281 C 226.144531 78.09375 208.3125 36.441406 227.039062 2.613281 " fill-opacity="1" fill-rule="nonzero"/></g></svg>