<svg xmlns="http://www.w3.org/2000/svg" xmlns:xlink="http://www.w3.org/1999/xlink" width="100" zoomAndPan="magnify" viewBox="0 0 375 374.999991" height="100" preserveAspectRatio="xMidYMid meet" version="1.0"><defs><clipPath id="id1"><path d="M 186 3.199219 L 274.296875 3.199219 L 274.296875 328 L 186 328 Z M 186 3.199219 " clip-rule="nonzero"/></clipPath><clipPath id="id2"><path d="M 102 3.199219 L 190 3.199219 L 190 332 L 102 332 Z M 102 3.199219 " clip-rule="nonzero"/></clipPath><clipPath id="id3"><path d="M 180 283 L 203 283 L 203 371.449219 L 180 371.449219 Z M 180 283 " clip-rule="nonzero"/></clipPath></defs><g clip-path="url(#id1)"><path fill="rgb(34.899902%, 58.81958%, 21.179199%)" d="M 187.074219 -2.25 L 197.277344 16.863281 C 199.574219 20.390625 202.058594 23.515625 204.984375 26.421875 C 213.527344 34.941406 221.640625 43.867188 228.929688 53.425781 C 246.21875 76.066406 257.878906 101.210938 266.207031 128.40625 C 271.203125 145.019531 273.914062 162.058594 274.117188 179.289062 C 274.953125 230.804688 257.246094 275.042969 221.546875 311.804688 C 215.714844 317.621094 209.476562 323.007812 202.785156 327.796875 C 199.25 327.796875 197.578125 325.09375 196.121094 322.601562 C 193.40625 318.039062 191.746094 312.828125 190.910156 307.644531 C 189.65625 301.414062 188.832031 295.179688 189.238281 288.746094 L 189.238281 285.839844 C 188.949219 285.21875 185.832031 -0.785156 187.074219 -2.25 Z M 187.074219 -2.25 " fill-opacity="1" fill-rule="nonzero"/></g><g clip-path="url(#id2)"><path fill="rgb(42.349243%, 67.449951%, 28.239441%)" d="M 187.074219 -2.882812 C 186.65625 -3.714844 186.238281 -3.082031 185.820312 -2.679688 C 186.023438 1.492188 184.566406 5.210938 182.28125 8.761719 C 179.773438 12.289062 176.453125 14.992188 173.117188 17.902344 C 154.597656 33.894531 140.023438 53.210938 128.347656 74.816406 C 112.816406 103.894531 104.8125 135.054688 102.539062 167.863281 C 101.5 179.695312 106.292969 221.453125 110.03125 233.5 C 120.234375 265.484375 138.566406 292.285156 162.304688 315.546875 C 168.136719 321.148438 174.375 326.34375 180.824219 331.335938 C 182.703125 331.335938 182.90625 329.667969 183.335938 328.429688 C 184.15625 325.773438 184.785156 323.070312 185.210938 320.324219 L 189.390625 289.175781 Z M 187.074219 -2.882812 " fill-opacity="1" fill-rule="nonzero"/></g><g clip-path="url(#id3)"><path fill="rgb(76.078796%, 74.899292%, 74.899292%)" d="M 197.277344 340.453125 C 197.695312 335.6875 199.992188 331.730469 202.488281 327.785156 C 199.980469 326.75 198.113281 324.6875 196.65625 322.386719 C 195.402344 320.3125 194.363281 317.824219 193.550781 315.535156 C 190.636719 306.8125 190.015625 297.660156 189.175781 288.746094 L 189.175781 283.347656 C 188.136719 284.183594 187.921875 291.238281 187.921875 292.285156 C 187.3125 301.71875 186.0625 311.0625 184.171875 320.324219 C 183.550781 324.066406 183.132812 327.796875 180.824219 331.121094 C 180.824219 331.539062 180.824219 331.957031 181.027344 332.574219 C 184.78125 343.585938 185.808594 354.800781 186.441406 366.230469 L 186.441406 370.398438 C 186.441406 375.378906 186.238281 374.332031 190.382812 376 C 192.058594 376.621094 193.921875 376.835938 195.59375 378.074219 C 196.847656 378.074219 197.050781 377.035156 197.050781 376.203125 L 196.429688 369.351562 L 196.429688 350.234375 C 196.226562 346.898438 196.847656 343.585938 197.265625 340.464844 Z M 197.277344 340.453125 " fill-opacity="1" fill-rule="nonzero"/></g></svg>