<svg xmlns="http://www.w3.org/2000/svg" xmlns:xlink="http://www.w3.org/1999/xlink" width="100" zoomAndPan="magnify" viewBox="0 0 375 374.999991" height="100" preserveAspectRatio="xMidYMid meet" version="1.0"><defs><clipPath id="id1"><path d="M 24 4 L 350.851562 4 L 350.851562 371.886719 L 24 371.886719 Z M 24 4 " clip-rule="nonzero"/></clipPath></defs><g clip-path="url(#id1)"><path fill="rgb(32.548523%, 61.959839%, 26.269531%)" d="M 187.351562 371.835938 C 182.28125 371.835938 177.550781 370.484375 173.164062 368.125 L 128.238281 341.425781 C 121.480469 337.714844 124.859375 336.363281 126.886719 335.6875 C 136.007812 332.640625 137.695312 331.964844 147.152344 326.558594 C 148.167969 325.882812 149.519531 326.226562 150.53125 326.902344 L 184.980469 347.507812 C 186.332031 348.183594 188.027344 348.183594 189.046875 347.507812 L 323.820312 269.460938 C 325.171875 268.785156 325.847656 267.433594 325.847656 265.738281 L 325.847656 109.964844 C 325.847656 108.277344 325.171875 106.925781 323.820312 106.25 L 189.046875 28.53125 C 187.695312 27.855469 186 27.855469 184.980469 28.53125 L 50.210938 106.25 C 48.855469 106.925781 48.179688 108.613281 48.179688 109.964844 L 48.179688 265.738281 C 48.179688 267.089844 48.855469 268.785156 50.203125 269.460938 L 87.023438 290.742188 C 106.957031 300.878906 119.453125 289.058594 119.453125 277.226562 L 119.453125 123.480469 C 119.453125 121.453125 121.144531 119.425781 123.507812 119.425781 L 140.734375 119.425781 C 142.761719 119.425781 144.789062 121.117188 144.789062 123.480469 L 144.789062 277.226562 C 144.789062 303.925781 130.261719 319.46875 104.929688 319.46875 C 97.160156 319.46875 91.078125 319.46875 73.851562 311.015625 L 38.378906 290.742188 C 29.597656 285.679688 24.195312 276.21875 24.195312 266.082031 L 24.195312 110.3125 C 24.195312 100.167969 29.597656 90.707031 38.378906 85.636719 L 173.164062 7.582031 C 181.605469 2.851562 193.101562 2.851562 201.539062 7.582031 L 336.324219 85.636719 C 345.105469 90.707031 350.511719 100.167969 350.511719 110.304688 L 350.511719 266.078125 C 350.511719 276.214844 345.105469 285.675781 336.324219 290.738281 L 201.539062 368.796875 C 197.15625 370.824219 192.082031 371.832031 187.351562 371.832031 Z M 228.90625 264.730469 C 169.789062 264.730469 157.628906 237.6875 157.628906 214.710938 C 157.628906 212.683594 159.308594 210.65625 161.679688 210.65625 L 179.246094 210.65625 C 181.273438 210.65625 182.953125 212.007812 182.953125 214.035156 C 185.65625 231.949219 193.433594 240.734375 229.238281 240.734375 C 257.613281 240.734375 269.773438 234.308594 269.773438 219.109375 C 269.773438 210.324219 266.394531 203.898438 222.152344 199.511719 C 185.324219 195.789062 162.355469 187.679688 162.355469 158.289062 C 162.355469 130.914062 185.324219 114.695312 223.832031 114.695312 C 267.070312 114.695312 288.359375 129.5625 291.058594 162 C 291.058594 163.019531 290.714844 164.027344 290.039062 165.046875 C 289.363281 165.722656 288.359375 166.398438 287.339844 166.398438 L 269.773438 166.398438 C 268.089844 166.398438 266.394531 165.046875 266.0625 163.351562 C 262.011719 144.773438 251.53125 138.691406 223.832031 138.691406 C 192.757812 138.691406 189.046875 149.503906 189.046875 157.613281 C 189.046875 167.40625 193.433594 170.453125 235.320312 175.859375 C 276.875 181.265625 296.464844 189.03125 296.464844 218.089844 C 296.121094 247.824219 271.800781 264.730469 228.90625 264.730469 Z M 228.90625 264.730469 " fill-opacity="1" fill-rule="nonzero"/></g></svg>