<svg xmlns="http://www.w3.org/2000/svg" xmlns:xlink="http://www.w3.org/1999/xlink" width="100" zoomAndPan="magnify" viewBox="0 0 375 374.999991" height="100" preserveAspectRatio="xMidYMid meet" version="1.0"><defs><clipPath id="id1"><path d="M 19 26 L 352 26 L 352 369.070312 L 19 369.070312 Z M 19 26 " clip-rule="nonzero"/></clipPath></defs><g clip-path="url(#id1)"><path fill="rgb(0%, 0%, 0%)" d="M 350.9375 231.941406 C 348.9375 225.898438 343.710938 221.6875 336.953125 220.671875 C 333.769531 220.207031 330.117188 220.398438 325.800781 221.296875 C 318.277344 222.84375 312.691406 223.441406 308.609375 223.558594 C 323.996094 197.578125 336.511719 167.957031 343.710938 140.078125 C 355.355469 94.992188 349.132812 74.453125 341.851562 65.164062 C 322.617188 40.574219 294.535156 27.363281 260.664062 26.957031 C 242.601562 26.738281 226.730469 30.304688 218.464844 32.871094 C 210.761719 31.511719 202.46875 30.753906 193.785156 30.613281 C 177.488281 30.351562 163.089844 33.90625 150.796875 41.203125 C 143.980469 38.902344 133.050781 35.65625 120.429688 33.582031 C 90.746094 28.710938 66.816406 32.507812 49.316406 44.871094 C 28.125 59.839844 18.300781 85.851562 20.117188 122.175781 C 20.695312 133.710938 27.148438 168.804688 37.304688 202.074219 C 43.144531 221.207031 49.367188 237.089844 55.808594 249.292969 C 64.941406 266.605469 74.710938 276.792969 85.683594 280.457031 C 91.832031 282.5 103.003906 283.941406 114.753906 274.15625 C 116.242188 275.949219 118.230469 277.742188 120.867188 279.40625 C 124.214844 281.523438 128.308594 283.253906 132.398438 284.265625 C 147.140625 287.957031 160.945312 287.035156 172.71875 281.875 C 172.796875 283.96875 172.851562 285.96875 172.902344 287.699219 C 172.980469 290.503906 173.058594 293.246094 173.160156 295.820312 C 173.851562 313.195312 175.03125 326.714844 178.542969 336.175781 C 178.738281 336.695312 178.996094 337.488281 179.269531 338.320312 C 181.011719 343.675781 183.933594 352.640625 191.371094 359.660156 C 199.074219 366.925781 208.394531 369.148438 216.921875 369.148438 C 221.195312 369.148438 225.277344 368.589844 228.863281 367.824219 C 241.625 365.09375 256.117188 360.921875 266.605469 345.988281 C 276.519531 331.875 281.328125 310.625 282.199219 277.117188 C 282.316406 276.167969 282.421875 275.273438 282.523438 274.402344 C 282.589844 273.828125 282.65625 273.230469 282.734375 272.632812 L 285.074219 272.84375 L 285.671875 272.882812 C 298.667969 273.480469 314.5625 270.722656 324.320312 266.1875 C 332.039062 262.601562 356.761719 249.550781 350.9375 231.941406 " fill-opacity="1" fill-rule="nonzero"/></g><path fill="rgb(19.999695%, 40.388489%, 56.858826%)" d="M 328.714844 235.359375 C 290.0625 243.339844 287.398438 230.25 287.398438 230.25 C 328.207031 169.6875 345.269531 92.824219 330.546875 74.019531 C 290.386719 22.695312 220.859375 46.964844 219.703125 47.59375 L 219.324219 47.664062 C 211.695312 46.078125 203.144531 45.132812 193.539062 44.976562 C 176.046875 44.6875 162.789062 49.5625 152.71875 57.195312 C 152.71875 57.195312 28.695312 6.101562 34.464844 121.457031 C 35.691406 145.996094 69.636719 307.140625 110.125 258.46875 C 124.925781 240.675781 139.222656 225.625 139.222656 225.625 C 146.324219 230.34375 154.824219 232.75 163.738281 231.890625 L 164.429688 231.292969 C 164.21875 233.503906 164.3125 235.671875 164.714844 238.234375 C 154.277344 249.878906 157.34375 251.933594 136.492188 256.21875 C 115.394531 260.574219 127.789062 268.308594 135.882812 270.335938 C 145.691406 272.792969 168.390625 276.261719 183.726562 254.792969 L 183.117188 257.246094 C 187.199219 260.523438 190.070312 278.535156 189.589844 294.875 C 189.109375 311.210938 188.78125 322.425781 192.007812 331.1875 C 195.230469 339.945312 198.4375 359.648438 225.847656 353.773438 C 248.746094 348.875 260.625 336.152344 262.277344 314.925781 C 263.445312 299.851562 266.097656 302.074219 266.265625 288.59375 L 268.386719 282.203125 C 270.839844 261.757812 268.773438 255.15625 282.890625 258.222656 L 286.320312 258.535156 C 296.703125 259.003906 310.296875 256.859375 318.277344 253.152344 C 335.457031 245.171875 345.648438 231.863281 328.699219 235.359375 L 328.714844 235.359375 " fill-opacity="1" fill-rule="nonzero"/><path fill="rgb(100%, 100%, 100%)" d="M 159.984375 132.429688 C 156.5 131.945312 153.34375 132.394531 151.742188 133.605469 C 150.847656 134.285156 150.574219 135.070312 150.496094 135.613281 C 150.300781 137.050781 151.300781 138.636719 151.914062 139.457031 C 153.667969 141.773438 156.226562 143.367188 158.75 143.71875 C 159.125 143.769531 159.488281 143.792969 159.839844 143.792969 C 164.0625 143.792969 167.898438 140.511719 168.234375 138.085938 C 168.664062 135.050781 164.246094 133.027344 159.984375 132.429688 " fill-opacity="1" fill-rule="nonzero"/><path fill="rgb(100%, 100%, 100%)" d="M 275.363281 132.527344 C 275.027344 130.148438 270.800781 129.46875 266.773438 130.027344 C 262.769531 130.585938 258.871094 132.398438 259.195312 134.785156 C 259.457031 136.636719 262.808594 139.804688 266.773438 139.804688 C 267.113281 139.804688 267.449219 139.78125 267.789062 139.734375 C 270.425781 139.367188 272.375 137.6875 273.296875 136.71875 C 274.703125 135.242188 275.507812 133.597656 275.363281 132.527344 " fill-opacity="1" fill-rule="nonzero"/><path fill="rgb(100%, 100%, 100%)" d="M 341.566406 234.460938 C 340.097656 230.003906 335.355469 228.5625 327.464844 230.199219 C 304.074219 235.023438 295.691406 231.679688 292.933594 229.652344 C 311.128906 201.945312 326.089844 168.453125 334.160156 137.195312 C 337.992188 122.394531 340.097656 108.644531 340.265625 97.441406 C 340.460938 85.140625 338.371094 76.101562 334.042969 70.582031 C 316.628906 48.324219 291.0625 36.386719 260.121094 36.058594 C 238.84375 35.820312 220.871094 41.261719 217.386719 42.792969 C 210.058594 40.96875 202.050781 39.847656 193.34375 39.707031 C 177.371094 39.449219 163.570312 43.269531 152.148438 51.0625 C 147.175781 49.21875 134.347656 44.8125 118.65625 42.285156 C 91.53125 37.917969 69.976562 41.226562 54.59375 52.125 C 36.238281 65.128906 27.765625 88.375 29.40625 121.214844 C 29.957031 132.265625 36.253906 166.253906 46.1875 198.800781 C 59.265625 241.648438 73.480469 265.902344 88.4375 270.894531 C 90.1875 271.476562 92.207031 271.878906 94.429688 271.878906 C 99.886719 271.878906 106.578125 269.425781 113.535156 261.054688 C 125.097656 247.148438 135.890625 235.488281 139.867188 231.253906 C 145.746094 234.410156 152.210938 236.179688 158.8125 236.347656 C 158.828125 236.527344 158.839844 236.699219 158.851562 236.867188 C 157.527344 238.441406 156.449219 239.816406 155.511719 241 C 150.9375 246.808594 149.988281 248.019531 135.253906 251.046875 C 131.0625 251.917969 119.929688 254.203125 119.769531 262.015625 C 119.589844 270.542969 132.925781 274.117188 134.445312 274.492188 C 139.742188 275.820312 144.839844 276.480469 149.703125 276.480469 C 161.542969 276.480469 171.953125 272.59375 180.269531 265.070312 C 180.011719 295.457031 181.285156 325.414062 184.921875 334.539062 C 187.914062 342.011719 195.214844 360.257812 218.285156 360.257812 C 221.664062 360.257812 225.394531 359.867188 229.488281 358.984375 C 253.554688 353.824219 264.003906 343.195312 268.058594 319.734375 C 270.21875 307.207031 273.933594 277.261719 275.675781 261.210938 C 279.367188 262.355469 284.109375 262.886719 289.246094 262.886719 C 299.941406 262.886719 312.285156 260.613281 320.019531 257.011719 C 328.726562 252.984375 344.414062 243.066406 341.566406 234.460938 Z M 284.253906 125.960938 C 284.164062 130.699219 283.511719 135.003906 282.824219 139.492188 C 282.082031 144.324219 281.316406 149.320312 281.121094 155.382812 C 280.925781 161.277344 281.667969 167.414062 282.382812 173.351562 C 283.8125 185.335938 285.292969 197.667969 279.574219 209.847656 C 278.679688 208.261719 277.820312 206.546875 277.039062 204.636719 C 276.324219 202.90625 274.78125 200.136719 272.648438 196.304688 C 264.332031 181.398438 244.863281 146.46875 254.832031 132.214844 C 257.792969 127.972656 265.332031 123.609375 284.253906 125.960938 Z M 261.316406 45.65625 C 289.050781 46.269531 310.972656 56.640625 326.503906 76.484375 C 338.410156 91.703125 325.296875 160.964844 287.332031 220.710938 C 286.957031 220.230469 286.578125 219.746094 286.175781 219.253906 C 286.019531 219.058594 285.863281 218.851562 285.695312 218.65625 C 295.507812 202.449219 293.597656 186.425781 291.882812 172.207031 C 291.179688 166.371094 290.519531 160.859375 290.6875 155.6875 C 290.867188 150.203125 291.597656 145.5 292.285156 140.949219 C 293.15625 135.34375 294.027344 129.542969 293.792969 122.707031 C 293.976562 121.988281 294.039062 121.140625 293.949219 120.136719 C 293.324219 113.578125 285.839844 93.953125 270.582031 76.191406 C 262.238281 66.476562 250.074219 55.605469 233.453125 48.273438 C 240.597656 46.792969 250.371094 45.410156 261.316406 45.652344 Z M 106.164062 254.929688 C 98.5 264.144531 93.203125 262.378906 91.460938 261.804688 C 80.113281 258.011719 66.949219 234.03125 55.34375 196.003906 C 45.300781 163.09375 39.429688 130.011719 38.964844 120.734375 C 37.5 91.390625 44.613281 70.9375 60.109375 59.949219 C 85.328125 42.066406 126.785156 52.769531 143.445312 58.199219 C 143.207031 58.433594 142.957031 58.65625 142.722656 58.894531 C 115.382812 86.507812 116.03125 133.679688 116.097656 136.5625 C 116.097656 137.675781 116.191406 139.25 116.316406 141.417969 C 116.789062 149.351562 117.664062 164.121094 115.324219 180.847656 C 113.152344 196.378906 117.941406 211.597656 128.464844 222.566406 C 129.554688 223.710938 130.691406 224.777344 131.867188 225.777344 C 127.183594 230.796875 117.003906 241.894531 106.164062 254.929688 Z M 135.378906 215.941406 C 126.898438 207.101562 123.046875 194.78125 124.808594 182.175781 C 127.28125 164.5 126.367188 149.117188 125.878906 140.851562 C 125.808594 139.695312 125.75 138.679688 125.714844 137.882812 C 129.707031 134.339844 148.214844 124.421875 161.40625 127.449219 C 167.4375 128.828125 171.101562 132.929688 172.636719 139.984375 C 180.523438 176.507812 173.675781 191.726562 168.179688 203.96875 C 167.035156 206.476562 165.96875 208.871094 165.046875 211.324219 L 164.34375 213.238281 C 162.539062 218.058594 160.875 222.527344 159.835938 226.777344 C 150.816406 226.753906 142.050781 222.90625 135.378906 215.941406 Z M 136.765625 265.210938 C 134.132812 264.546875 131.761719 263.402344 130.375 262.457031 C 131.535156 261.910156 133.601562 261.167969 137.179688 260.429688 C 154.519531 256.867188 157.195312 254.34375 163.03125 246.925781 C 164.382812 245.222656 165.890625 243.285156 167.996094 240.945312 L 167.996094 240.933594 C 171.140625 237.421875 172.570312 238.019531 175.171875 239.101562 C 177.277344 239.972656 179.328125 242.609375 180.160156 245.519531 C 180.550781 246.886719 180.992188 249.496094 179.550781 251.523438 C 167.335938 268.617188 149.542969 268.40625 136.765625 265.210938 Z M 227.480469 349.625 C 206.269531 354.160156 198.757812 343.347656 193.820312 330.972656 C 190.625 322.996094 189.050781 286.980469 190.167969 247.210938 C 190.179688 246.691406 190.105469 246.171875 189.960938 245.6875 C 189.832031 244.765625 189.636719 243.832031 189.363281 242.882812 C 187.710938 237.097656 183.683594 232.265625 178.835938 230.25 C 176.914062 229.457031 173.378906 227.988281 169.140625 229.078125 C 170.050781 225.347656 171.609375 221.136719 173.3125 216.589844 L 174.027344 214.667969 C 174.832031 212.507812 175.832031 210.261719 176.914062 207.894531 C 182.667969 195.09375 190.558594 177.558594 181.992188 137.960938 C 178.785156 123.125 168.074219 115.878906 151.84375 117.5625 C 142.101562 118.570312 133.195312 122.5 128.753906 124.75 C 127.800781 125.234375 126.925781 125.703125 126.109375 126.15625 C 127.351562 111.210938 132.035156 83.277344 149.554688 65.605469 C 160.589844 54.480469 175.273438 48.984375 193.183594 49.28125 C 228.457031 49.859375 251.070312 67.960938 263.832031 83.046875 C 274.839844 96.042969 280.792969 109.136719 283.167969 116.199219 C 265.300781 114.382812 253.136719 117.910156 246.976562 126.722656 C 233.5625 145.890625 254.304688 183.097656 264.273438 200.96875 C 266.105469 204.242188 267.679688 207.074219 268.183594 208.285156 C 271.421875 216.148438 275.632812 221.398438 278.699219 225.246094 C 279.636719 226.414062 280.558594 227.558594 281.246094 228.546875 C 275.828125 230.105469 266.105469 233.71875 266.988281 251.746094 C 266.273438 260.792969 261.191406 303.136719 258.605469 318.109375 C 255.203125 337.875 247.925781 345.230469 227.480469 349.625 Z M 315.984375 248.328125 C 310.449219 250.902344 301.183594 252.824219 292.382812 253.242188 C 282.664062 253.695312 277.710938 252.148438 276.554688 251.199219 C 276.007812 239.972656 280.179688 238.789062 284.613281 237.554688 C 285.300781 237.359375 285.988281 237.164062 286.640625 236.941406 C 287.042969 237.265625 287.496094 237.59375 287.976562 237.917969 C 295.789062 243.078125 309.734375 243.636719 329.398438 239.566406 C 329.476562 239.554688 329.554688 239.542969 329.617188 239.527344 C 326.96875 242.011719 322.429688 245.339844 315.984375 248.328125 Z M 315.984375 248.328125 " fill-opacity="1" fill-rule="nonzero"/></svg>