<svg xmlns="http://www.w3.org/2000/svg" xmlns:xlink="http://www.w3.org/1999/xlink" width="100" zoomAndPan="magnify" viewBox="0 0 375 374.999991" height="100" preserveAspectRatio="xMidYMid meet" version="1.0"><defs><clipPath id="id1"><path d="M 93 108 L 372.523438 108 L 372.523438 372.523438 L 93 372.523438 Z M 93 108 " clip-rule="nonzero"/></clipPath><clipPath id="id2"><path d="M 187 108 L 372.523438 108 L 372.523438 372.523438 L 187 372.523438 Z M 187 108 " clip-rule="nonzero"/></clipPath><clipPath id="id3"><path d="M 2.773438 2.773438 L 268 2.773438 L 268 268 L 2.773438 268 Z M 2.773438 2.773438 " clip-rule="nonzero"/></clipPath><clipPath id="id4"><path d="M 187 2.773438 L 268 2.773438 L 268 188 L 187 188 Z M 187 2.773438 " clip-rule="nonzero"/></clipPath></defs><g clip-path="url(#id1)"><path fill="rgb(99.609375%, 93.728638%, 33.329773%)" d="M 318.363281 108.210938 L 252.644531 108.210938 L 252.644531 173.207031 L 93.769531 173.207031 L 93.769531 252.644531 C 93.769531 260.625 100.234375 267.089844 108.210938 267.089844 L 108.210938 318.363281 C 108.210938 348.277344 132.460938 372.523438 162.375 372.523438 L 212.925781 372.523438 C 242.839844 372.523438 267.089844 348.277344 267.089844 318.363281 L 267.089844 288.753906 L 202.402344 288.753906 C 196.566406 288.753906 191.550781 284.269531 191.273438 278.445312 C 190.980469 272.222656 195.9375 267.089844 202.09375 267.089844 L 318.363281 267.089844 C 348.277344 267.089844 372.523438 242.839844 372.523438 212.925781 L 372.523438 162.375 C 372.523438 132.460938 348.277344 108.210938 318.363281 108.210938 Z M 318.363281 108.210938 " fill-opacity="1" fill-rule="nonzero"/></g><g clip-path="url(#id2)"><path fill="rgb(99.609375%, 86.268616%, 0%)" d="M 318.363281 108.210938 L 252.644531 108.210938 L 252.644531 173.207031 L 187.648438 173.207031 L 187.648438 372.523438 L 212.925781 372.523438 C 242.839844 372.523438 267.089844 348.277344 267.089844 318.363281 L 267.089844 288.753906 L 202.402344 288.753906 C 196.566406 288.753906 191.550781 284.269531 191.273438 278.445312 C 190.980469 272.222656 195.9375 267.089844 202.09375 267.089844 L 318.363281 267.089844 C 348.277344 267.089844 372.523438 242.839844 372.523438 212.925781 L 372.523438 162.375 C 372.523438 132.460938 348.277344 108.210938 318.363281 108.210938 Z M 318.363281 108.210938 " fill-opacity="1" fill-rule="nonzero"/></g><g clip-path="url(#id3)"><path fill="rgb(47.059631%, 87.838745%, 91.758728%)" d="M 137.097656 187.648438 L 238.203125 187.648438 C 254.15625 187.648438 267.089844 174.714844 267.089844 158.761719 L 267.089844 56.9375 C 267.089844 27.074219 242.792969 2.773438 212.925781 2.773438 L 162.375 2.773438 C 132.507812 2.773438 108.210938 27.074219 108.210938 56.9375 L 108.210938 86.546875 L 173.207031 86.546875 C 179.191406 86.546875 184.039062 91.394531 184.039062 97.378906 C 184.039062 103.363281 179.191406 108.210938 173.207031 108.210938 L 56.9375 108.210938 C 27.074219 108.210938 2.773438 132.507812 2.773438 162.375 L 2.773438 212.925781 C 2.773438 242.792969 27.074219 267.089844 56.9375 267.089844 L 108.210938 267.089844 L 108.210938 216.535156 C 108.210938 200.585938 121.144531 187.648438 137.097656 187.648438 Z M 137.097656 187.648438 " fill-opacity="1" fill-rule="nonzero"/></g><g clip-path="url(#id4)"><path fill="rgb(23.529053%, 79.998779%, 86.669922%)" d="M 212.925781 2.773438 L 187.648438 2.773438 L 187.648438 187.648438 L 238.203125 187.648438 C 254.15625 187.648438 267.089844 174.714844 267.089844 158.761719 L 267.089844 56.9375 C 267.089844 27.074219 242.792969 2.773438 212.925781 2.773438 Z M 212.925781 2.773438 " fill-opacity="1" fill-rule="nonzero"/></g><path fill="rgb(35.289001%, 35.289001%, 43.139648%)" d="M 173.207031 46.828125 C 173.207031 52.8125 168.359375 57.660156 162.375 57.660156 C 156.390625 57.660156 151.542969 52.8125 151.542969 46.828125 C 151.542969 40.84375 156.390625 35.996094 162.375 35.996094 C 168.359375 35.996094 173.207031 40.84375 173.207031 46.828125 Z M 173.207031 46.828125 " fill-opacity="1" fill-rule="nonzero"/><path fill="rgb(27.449036%, 27.449036%, 35.289001%)" d="M 223.757812 328.472656 C 223.757812 334.457031 218.910156 339.304688 212.925781 339.304688 C 206.941406 339.304688 202.09375 334.457031 202.09375 328.472656 C 202.09375 322.488281 206.941406 317.640625 212.925781 317.640625 C 218.910156 317.640625 223.757812 322.488281 223.757812 328.472656 Z M 223.757812 328.472656 " fill-opacity="1" fill-rule="nonzero"/></svg>