<svg xmlns="http://www.w3.org/2000/svg" xmlns:xlink="http://www.w3.org/1999/xlink" width="100" zoomAndPan="magnify" viewBox="0 0 375 374.999991" height="100" preserveAspectRatio="xMidYMid meet" version="1.0"><defs><clipPath id="id1"><path d="M 1.875 20.4375 L 373.125 20.4375 L 373.125 354.214844 L 1.875 354.214844 Z M 1.875 20.4375 " clip-rule="nonzero"/></clipPath></defs><g clip-path="url(#id1)"><path fill="rgb(100%, 100%, 100%)" d="M 1.875 186.75 C 1.875 214.761719 29.265625 240.933594 72.40625 255.699219 C 63.804688 299.105469 70.859375 334.074219 94.488281 347.6875 C 118.78125 361.695312 154.96875 352.003906 189.3125 321.980469 C 222.800781 350.785156 256.648438 362.125 280.214844 348.445312 C 304.503906 334.40625 311.886719 297.0625 303.019531 252.335938 C 347.976562 237.472656 373.125 215.125 373.125 186.75 C 373.125 159.359375 345.703125 135.660156 303.121094 120.996094 C 312.644531 74.390625 304.570312 40.277344 279.984375 26.074219 C 256.253906 12.394531 222.007812 24.328125 188.058594 53.890625 C 152.695312 22.515625 118.8125 12.921875 94.226562 27.160156 C 70.527344 40.871094 63.773438 76.5 72.40625 120.699219 C 30.714844 135.234375 1.875 159.457031 1.875 186.75 " fill-opacity="1" fill-rule="nonzero"/></g><path fill="rgb(37.649536%, 79.60968%, 87.059021%)" d="M 294.089844 135.5625 C 290.59375 134.34375 287.035156 133.222656 283.476562 132.203125 C 284.070312 129.796875 284.628906 127.390625 285.125 124.984375 C 293.167969 85.960938 287.925781 54.550781 269.964844 44.199219 C 252.757812 34.28125 224.644531 44.628906 196.234375 69.347656 C 193.433594 71.789062 190.695312 74.324219 188.027344 76.894531 C 186.214844 75.183594 184.402344 73.5 182.554688 71.855469 C 152.792969 45.421875 122.933594 34.28125 105.003906 44.628906 C 87.832031 54.582031 82.757812 84.113281 89.972656 121.09375 C 90.699219 124.753906 91.523438 128.378906 92.414062 132.003906 C 88.195312 133.191406 84.109375 134.476562 80.21875 135.859375 C 45.316406 148.023438 23.035156 167.070312 23.035156 186.878906 C 23.035156 207.316406 46.964844 227.816406 83.316406 240.242188 C 86.25 241.230469 89.214844 242.152344 92.214844 243.007812 C 91.257812 246.898438 90.371094 250.820312 89.644531 254.777344 C 82.722656 291.097656 88.128906 319.9375 105.265625 329.824219 C 122.964844 340.039062 152.664062 329.527344 181.601562 304.246094 C 183.875 302.269531 186.179688 300.128906 188.488281 297.917969 C 191.390625 300.6875 194.324219 303.421875 197.386719 306.027344 C 225.402344 330.152344 253.089844 339.875 270.195312 329.988281 C 287.894531 319.738281 293.628906 288.757812 286.179688 251.085938 C 285.617188 248.183594 284.925781 245.25 284.203125 242.25 C 286.277344 241.65625 288.355469 241 290.332031 240.339844 C 328.136719 227.816406 352.722656 207.578125 352.722656 186.878906 C 352.722656 167.007812 329.71875 147.824219 294.089844 135.5625 " fill-opacity="1" fill-rule="nonzero"/><path fill="rgb(100%, 100%, 100%)" d="M 262.941406 56.429688 C 273.953125 62.789062 278.269531 88.464844 271.316406 122.117188 C 270.886719 124.324219 270.390625 126.5 269.863281 128.675781 C 256.1875 125.542969 241.320312 123.171875 225.765625 121.71875 C 216.703125 108.832031 207.308594 97.101562 197.882812 86.949219 C 200.355469 84.542969 202.890625 82.234375 205.496094 79.996094 C 229.820312 58.800781 252.5625 50.429688 262.941406 56.429688 Z M 233.875 213.707031 C 228.894531 222.378906 223.621094 230.878906 218.054688 239.21875 C 208.296875 239.910156 198.179688 240.273438 187.863281 240.273438 C 177.613281 240.273438 167.625 239.945312 158.035156 239.316406 C 152.332031 231.011719 146.960938 222.507812 141.882812 213.773438 C 136.875 205.105469 132.195312 196.242188 127.84375 187.210938 C 132.195312 178.179688 136.84375 169.3125 141.851562 160.644531 C 146.863281 151.945312 152.199219 143.472656 157.835938 135.167969 C 167.660156 134.441406 177.710938 134.046875 187.863281 134.046875 C 198.078125 134.046875 208.164062 134.441406 217.953125 135.199219 C 223.558594 143.441406 228.832031 151.910156 233.839844 160.546875 C 238.851562 169.214844 243.597656 178.046875 248.046875 187.011719 C 243.660156 196.074219 238.914062 204.976562 233.875 213.707031 Z M 255.660156 203.261719 C 260.042969 213.3125 263.765625 223.035156 266.734375 232.265625 C 257.140625 234.441406 246.824219 236.21875 235.949219 237.503906 C 239.441406 232 242.804688 226.398438 246.101562 220.730469 C 249.398438 214.996094 252.59375 209.160156 255.660156 203.261719 Z M 188.421875 277.714844 C 181.730469 270.53125 175.074219 262.554688 168.582031 253.984375 C 174.875 254.25 181.335938 254.347656 187.863281 254.347656 C 194.585938 254.347656 201.242188 254.214844 207.769531 253.917969 C 201.34375 262.652344 194.851562 270.628906 188.421875 277.714844 Z M 140.070312 237.769531 C 129.261719 236.550781 119.078125 234.933594 109.683594 232.890625 C 112.585938 223.464844 116.175781 213.707031 120.363281 203.753906 C 123.363281 209.523438 126.460938 215.226562 129.722656 220.828125 C 133.019531 226.5625 136.480469 232.199219 140.070312 237.769531 Z M 129.65625 153.589844 C 126.425781 159.195312 123.328125 164.898438 120.363281 170.632812 C 116.242188 160.910156 112.75 151.351562 109.882812 142.121094 C 119.273438 140.011719 129.292969 138.296875 139.773438 136.980469 C 136.25 142.453125 132.886719 147.988281 129.65625 153.589844 Z M 188.027344 97 C 194.519531 104.054688 201.011719 111.898438 207.40625 120.433594 C 194.453125 119.808594 181.433594 119.808594 168.449219 120.433594 C 174.875 111.964844 181.433594 104.121094 188.027344 97 Z M 246.003906 153.492188 C 242.804688 147.921875 239.441406 142.417969 235.984375 137.011719 C 246.496094 138.332031 256.613281 140.113281 266.042969 142.253906 C 263.207031 151.382812 259.679688 160.910156 255.496094 170.664062 C 252.460938 164.863281 249.296875 159.160156 246.003906 153.492188 Z M 103.816406 118.390625 C 97.621094 86.71875 101.707031 62.824219 112.089844 56.824219 C 123.097656 50.429688 147.488281 59.558594 173.195312 82.367188 C 174.84375 83.851562 176.492188 85.367188 178.140625 86.949219 C 168.582031 97.230469 159.121094 108.933594 150.058594 121.6875 C 134.566406 123.136719 119.703125 125.445312 106.058594 128.542969 C 105.234375 125.179688 104.476562 121.785156 103.816406 118.390625 Z M 87.863281 226.890625 C 71.78125 221.386719 58.5 214.269531 49.402344 206.457031 C 41.226562 199.46875 37.109375 192.515625 37.109375 186.878906 C 37.109375 174.851562 55.003906 159.558594 84.867188 149.140625 C 88.589844 147.855469 92.378906 146.636719 96.203125 145.582031 C 100.324219 158.996094 105.730469 173.039062 112.289062 187.210938 C 105.664062 201.613281 100.160156 215.851562 96.003906 229.429688 C 93.269531 228.671875 90.566406 227.816406 87.863281 226.890625 Z M 135.425781 316.738281 C 125.273438 320.332031 117.164062 320.429688 112.289062 317.628906 C 101.90625 311.628906 97.585938 288.460938 103.453125 257.414062 C 104.179688 253.753906 104.96875 250.09375 105.894531 246.46875 C 119.375 249.4375 134.335938 251.613281 150.320312 252.898438 C 159.417969 265.71875 168.976562 277.515625 178.601562 287.867188 C 176.558594 289.84375 174.480469 291.753906 172.339844 293.632812 C 159.519531 304.839844 146.730469 312.75 135.425781 316.738281 Z M 272.371094 253.820312 C 275.664062 270.464844 276.125 285.558594 273.953125 297.324219 C 271.972656 307.90625 268.019531 314.957031 263.140625 317.792969 C 252.757812 323.792969 230.542969 315.980469 206.582031 295.382812 C 203.816406 293.007812 201.046875 290.46875 198.277344 287.800781 C 207.570312 277.648438 216.867188 265.816406 225.929688 252.699219 C 241.882812 251.316406 256.910156 248.976562 270.554688 245.84375 C 271.25 248.546875 271.84375 251.214844 272.371094 253.820312 Z M 285.882812 226.992188 C 284.101562 227.585938 282.257812 228.144531 280.378906 228.707031 C 276.191406 215.488281 270.554688 201.449219 263.667969 186.945312 C 270.226562 172.773438 275.664062 158.898438 279.71875 145.78125 C 283.082031 146.769531 286.375 147.789062 289.507812 148.878906 C 320.027344 159.359375 338.617188 174.917969 338.617188 186.878906 C 338.617188 199.601562 318.542969 216.148438 285.882812 226.992188 " fill-opacity="1" fill-rule="nonzero"/><path fill="rgb(37.649536%, 79.60968%, 87.059021%)" d="M 187.863281 157.414062 C 204.109375 157.414062 217.292969 170.597656 217.292969 186.878906 C 217.292969 203.128906 204.109375 216.3125 187.863281 216.3125 C 171.613281 216.3125 158.429688 203.128906 158.429688 186.878906 C 158.429688 170.597656 171.613281 157.414062 187.863281 157.414062 " fill-opacity="1" fill-rule="nonzero"/></svg>