<svg xmlns="http://www.w3.org/2000/svg" xmlns:xlink="http://www.w3.org/1999/xlink" width="100" zoomAndPan="magnify" viewBox="0 0 375 374.999991" height="100" preserveAspectRatio="xMidYMid meet" version="1.0"><defs><clipPath id="id1"><path d="M 3.09375 197 L 178 197 L 178 372 L 3.09375 372 Z M 3.09375 197 " clip-rule="nonzero"/></clipPath><clipPath id="id2"><path d="M 3.09375 3.09375 L 178 3.09375 L 178 178 L 3.09375 178 Z M 3.09375 3.09375 " clip-rule="nonzero"/></clipPath><clipPath id="id3"><path d="M 197 3.09375 L 372 3.09375 L 372 178 L 197 178 Z M 197 3.09375 " clip-rule="nonzero"/></clipPath><clipPath id="id4"><path d="M 197 197 L 372.09375 197 L 372.09375 372 L 197 372 Z M 197 197 " clip-rule="nonzero"/></clipPath></defs><g clip-path="url(#id1)"><path fill="rgb(87.838745%, 11.759949%, 35.289001%)" d="M 80.882812 236.3125 C 80.882812 257.738281 63.5625 275.0625 42.132812 275.0625 C 20.703125 275.0625 3.386719 257.738281 3.386719 236.3125 C 3.386719 214.886719 20.703125 197.5625 42.132812 197.5625 L 80.882812 197.5625 Z M 100.257812 236.3125 C 100.257812 214.886719 117.574219 197.5625 139.003906 197.5625 C 160.429688 197.5625 177.753906 214.886719 177.753906 236.3125 L 177.753906 333.183594 C 177.753906 354.609375 160.429688 371.933594 139.003906 371.933594 C 117.574219 371.933594 100.257812 354.609375 100.257812 333.183594 Z M 100.257812 236.3125 " fill-opacity="1" fill-rule="nonzero"/></g><g clip-path="url(#id2)"><path fill="rgb(21.179199%, 77.249146%, 94.119263%)" d="M 139.003906 80.734375 C 117.574219 80.734375 100.257812 63.414062 100.257812 41.984375 C 100.257812 20.554688 117.574219 3.238281 139.003906 3.238281 C 160.429688 3.238281 177.753906 20.554688 177.753906 41.984375 L 177.753906 80.734375 Z M 139.003906 100.402344 C 160.429688 100.402344 177.753906 117.71875 177.753906 139.148438 C 177.753906 160.574219 160.429688 177.898438 139.003906 177.898438 L 41.839844 177.898438 C 20.410156 177.898438 3.09375 160.574219 3.09375 139.148438 C 3.09375 117.71875 20.410156 100.402344 41.839844 100.402344 Z M 139.003906 100.402344 " fill-opacity="1" fill-rule="nonzero"/></g><g clip-path="url(#id3)"><path fill="rgb(18.03894%, 71.369934%, 49.01886%)" d="M 294.289062 139.148438 C 294.289062 117.71875 311.613281 100.402344 333.039062 100.402344 C 354.464844 100.402344 371.789062 117.71875 371.789062 139.148438 C 371.789062 160.574219 354.464844 177.898438 333.039062 177.898438 L 294.289062 177.898438 Z M 274.917969 139.148438 C 274.917969 160.574219 257.59375 177.898438 236.167969 177.898438 C 214.742188 177.898438 197.417969 160.574219 197.417969 139.148438 L 197.417969 41.984375 C 197.417969 20.554688 214.742188 3.238281 236.167969 3.238281 C 257.59375 3.238281 274.917969 20.554688 274.917969 41.984375 Z M 274.917969 139.148438 " fill-opacity="1" fill-rule="nonzero"/></g><g clip-path="url(#id4)"><path fill="rgb(92.549133%, 69.799805%, 18.03894%)" d="M 236.167969 294.433594 C 257.59375 294.433594 274.917969 311.757812 274.917969 333.183594 C 274.917969 354.609375 257.59375 371.933594 236.167969 371.933594 C 214.742188 371.933594 197.417969 354.609375 197.417969 333.183594 L 197.417969 294.433594 Z M 236.167969 275.0625 C 214.742188 275.0625 197.417969 257.738281 197.417969 236.3125 C 197.417969 214.886719 214.742188 197.5625 236.167969 197.5625 L 333.328125 197.5625 C 354.753906 197.5625 372.078125 214.886719 372.078125 236.3125 C 372.078125 257.738281 354.753906 275.0625 333.328125 275.0625 Z M 236.167969 275.0625 " fill-opacity="1" fill-rule="nonzero"/></g></svg>