<svg xmlns="http://www.w3.org/2000/svg" xmlns:xlink="http://www.w3.org/1999/xlink" width="100" zoomAndPan="magnify" viewBox="0 0 375 374.999991" height="100" preserveAspectRatio="xMidYMid meet" version="1.0"><defs><clipPath id="id1"><path d="M 43.917969 8.019531 L 331.167969 8.019531 L 331.167969 367.269531 L 43.917969 367.269531 Z M 43.917969 8.019531 " clip-rule="nonzero"/></clipPath></defs><g clip-path="url(#id1)"><path fill="rgb(100%, 100%, 100%)" d="M 289.277344 355.289062 L 85.808594 355.289062 C 69.308594 355.289062 55.886719 341.859375 55.886719 325.351562 L 55.886719 271.46875 L 319.199219 271.46875 L 319.199219 325.351562 C 319.199219 341.859375 305.773438 355.289062 289.277344 355.289062 Z M 85.808594 20 L 247.386719 20 L 247.386719 49.9375 C 247.386719 73.046875 266.175781 91.847656 289.277344 91.847656 L 319.199219 91.847656 L 319.199219 259.492188 L 55.886719 259.492188 L 55.886719 49.9375 C 55.886719 33.429688 69.308594 20 85.808594 20 Z M 259.355469 28.46875 L 310.734375 79.875 L 289.277344 79.875 C 272.777344 79.875 259.355469 66.441406 259.355469 49.9375 Z M 257.601562 9.78125 C 256.476562 8.65625 254.957031 8.027344 253.371094 8.027344 L 85.808594 8.027344 C 62.707031 8.027344 43.917969 26.828125 43.917969 49.9375 L 43.917969 325.351562 C 43.917969 348.464844 62.707031 367.265625 85.808594 367.265625 L 289.277344 367.265625 C 312.375 367.265625 331.167969 348.464844 331.167969 325.351562 L 331.167969 85.859375 C 331.167969 84.273438 330.535156 82.75 329.414062 81.628906 L 257.601562 9.78125 " fill-opacity="1" fill-rule="nonzero"/></g><path fill="rgb(100%, 100%, 100%)" d="M 133.683594 295.417969 L 145.652344 295.417969 C 148.957031 295.417969 151.636719 292.734375 151.636719 289.429688 C 151.636719 286.121094 148.957031 283.441406 145.652344 283.441406 L 133.683594 283.441406 C 123.78125 283.441406 115.730469 291.5 115.730469 301.402344 C 115.730469 311.308594 123.78125 319.367188 133.683594 319.367188 C 136.980469 319.367188 139.667969 322.050781 139.667969 325.351562 C 139.667969 328.652344 136.980469 331.339844 133.683594 331.339844 L 121.714844 331.339844 C 118.410156 331.339844 115.730469 334.019531 115.730469 337.328125 C 115.730469 340.632812 118.410156 343.316406 121.714844 343.316406 L 133.683594 343.316406 C 143.582031 343.316406 151.636719 335.257812 151.636719 325.351562 C 151.636719 315.449219 143.582031 307.390625 133.683594 307.390625 C 130.382812 307.390625 127.699219 304.703125 127.699219 301.402344 C 127.699219 298.101562 130.382812 295.417969 133.683594 295.417969 " fill-opacity="1" fill-rule="nonzero"/><path fill="rgb(100%, 100%, 100%)" d="M 253.371094 331.339844 L 235.417969 331.339844 L 235.417969 289.429688 C 235.417969 286.121094 232.738281 283.441406 229.433594 283.441406 C 226.128906 283.441406 223.449219 286.121094 223.449219 289.429688 L 223.449219 337.328125 C 223.449219 340.632812 226.128906 343.316406 229.433594 343.316406 L 253.371094 343.316406 C 256.675781 343.316406 259.355469 340.632812 259.355469 337.328125 C 259.355469 334.019531 256.675781 331.339844 253.371094 331.339844 " fill-opacity="1" fill-rule="nonzero"/><path fill="rgb(100%, 100%, 100%)" d="M 187.542969 331.339844 C 181.054688 331.339844 175.574219 323.113281 175.574219 313.378906 C 175.574219 303.644531 181.054688 295.417969 187.542969 295.417969 C 194.027344 295.417969 199.511719 303.644531 199.511719 313.378906 C 199.511719 316.289062 199.019531 319.058594 198.15625 321.519531 L 191.773438 315.132812 C 189.433594 312.792969 185.648438 312.792969 183.308594 315.132812 C 180.972656 317.472656 180.972656 321.261719 183.308594 323.597656 L 190.476562 330.769531 C 189.535156 331.140625 188.550781 331.339844 187.542969 331.339844 Z M 207.152344 330.515625 C 209.875 325.65625 211.480469 319.75 211.480469 313.378906 C 211.480469 296.871094 200.738281 283.441406 187.542969 283.441406 C 174.34375 283.441406 163.605469 296.871094 163.605469 313.378906 C 163.605469 329.882812 174.34375 343.316406 187.542969 343.316406 C 191.773438 343.316406 195.753906 341.925781 199.210938 339.507812 L 201.261719 341.5625 C 202.433594 342.730469 203.964844 343.316406 205.496094 343.316406 C 207.027344 343.316406 208.558594 342.730469 209.726562 341.5625 C 212.0625 339.222656 212.0625 335.433594 209.726562 333.09375 L 207.152344 330.515625 " fill-opacity="1" fill-rule="nonzero"/><path fill="rgb(100%, 100%, 100%)" d="M 187.542969 91.847656 C 211.179688 91.847656 226.871094 95.199219 233.121094 97.835938 C 226.871094 100.472656 211.179688 103.824219 187.542969 103.824219 C 163.90625 103.824219 148.214844 100.472656 141.964844 97.835938 C 148.214844 95.199219 163.90625 91.847656 187.542969 91.847656 Z M 139.667969 109.773438 C 142.488281 110.789062 145.460938 111.546875 148.15625 112.144531 C 158.746094 114.503906 172.730469 115.796875 187.542969 115.796875 C 202.351562 115.796875 216.339844 114.503906 226.925781 112.144531 C 229.621094 111.546875 232.59375 110.789062 235.417969 109.773438 L 235.417969 132.539062 C 231.789062 135.210938 215.050781 139.746094 187.542969 139.746094 C 160.03125 139.746094 143.292969 135.210938 139.667969 132.539062 Z M 139.667969 145.699219 C 142.488281 146.714844 145.460938 147.472656 148.15625 148.070312 C 158.746094 150.425781 172.730469 151.722656 187.542969 151.722656 C 202.351562 151.722656 216.339844 150.425781 226.925781 148.070312 C 229.621094 147.472656 232.59375 146.714844 235.417969 145.699219 L 235.417969 168.464844 C 231.789062 171.132812 215.050781 175.671875 187.542969 175.671875 C 160.03125 175.671875 143.292969 171.132812 139.667969 168.464844 Z M 187.542969 211.59375 C 160.054688 211.59375 143.308594 207.0625 139.667969 204.394531 L 139.667969 181.621094 C 142.488281 182.636719 145.460938 183.394531 148.15625 183.992188 C 158.746094 186.351562 172.730469 187.644531 187.542969 187.644531 C 202.351562 187.644531 216.339844 186.351562 226.925781 183.992188 C 229.621094 183.394531 232.59375 182.636719 235.417969 181.621094 L 235.417969 204.394531 C 231.773438 207.0625 215.027344 211.59375 187.542969 211.59375 Z M 148.15625 219.917969 C 158.746094 222.273438 172.730469 223.570312 187.542969 223.570312 C 202.351562 223.570312 216.339844 222.273438 226.925781 219.917969 C 235.707031 217.96875 247.386719 214.355469 247.386719 205.605469 L 247.386719 97.835938 C 247.386719 89.085938 235.707031 85.476562 226.925781 83.523438 C 216.339844 81.167969 202.351562 79.875 187.542969 79.875 C 172.730469 79.875 158.746094 81.167969 148.15625 83.523438 C 139.375 85.476562 127.699219 89.085938 127.699219 97.835938 L 127.699219 205.605469 C 127.699219 214.355469 139.375 217.96875 148.15625 219.917969 " fill-opacity="1" fill-rule="nonzero"/></svg>