<svg xmlns="http://www.w3.org/2000/svg" xmlns:xlink="http://www.w3.org/1999/xlink" width="70" zoomAndPan="magnify" viewBox="0 0 375 374.999991" height="70" preserveAspectRatio="xMidYMid meet" version="1.0"><defs><filter x="0%" y="0%" width="100%" xlink:type="simple" xlink:actuate="onLoad" height="100%" id="id1" xlink:show="other"><feColorMatrix values="0 0 0 0 1 0 0 0 0 1 0 0 0 0 1 0 0 0 1 0" color-interpolation-filters="sRGB"/></filter><g/><mask id="id2"><g filter="url(#id1)"><rect x="-37.5" width="450" fill="rgb(0%, 0%, 0%)" y="-37.499999" height="449.999989" fill-opacity="0.898"/></g></mask><clipPath id="id3"><path d="M 0.109375 0.464844 L 352.609375 0.464844 L 352.609375 354.464844 L 0.109375 354.464844 Z M 0.109375 0.464844 " clip-rule="nonzero"/></clipPath><clipPath id="id4"><rect x="0" width="354" y="0" height="356"/></clipPath></defs><g mask="url(#id2)"><g transform="matrix(1, 0, 0, 1, 11, 10)"><g clip-path="url(#id4)"><g clip-path="url(#id3)"><path fill="rgb(20.779419%, 83.529663%, 81.568909%)" d="M 352.476562 163.855469 C 352.488281 163.726562 352.460938 163.601562 352.421875 163.484375 C 352.417969 163.476562 352.421875 163.46875 352.417969 163.464844 L 317.292969 71.148438 C 317.285156 71.132812 317.273438 71.128906 317.265625 71.117188 C 317.207031 70.980469 317.128906 70.851562 317.003906 70.753906 L 239.753906 9.257812 C 239.632812 9.160156 239.484375 9.089844 239.324219 9.0625 C 239.3125 9.058594 239.300781 9.058594 239.289062 9.058594 L 176.234375 0.476562 C 176.109375 0.460938 175.980469 0.46875 175.855469 0.503906 L 145.804688 9.050781 L 144.949219 9.050781 C 144.777344 9.050781 144.613281 9.097656 144.472656 9.183594 L 143.707031 9.644531 L 69.734375 30.683594 C 69.710938 30.691406 69.695312 30.710938 69.675781 30.71875 C 69.574219 30.757812 69.484375 30.808594 69.402344 30.878906 C 69.371094 30.90625 69.335938 30.929688 69.308594 30.960938 C 69.289062 30.980469 69.269531 30.988281 69.253906 31.007812 L 4.476562 115.160156 C 4.457031 115.1875 4.453125 115.214844 4.4375 115.242188 C 4.414062 115.28125 4.386719 115.3125 4.367188 115.355469 C 4.359375 115.378906 4.355469 115.40625 4.34375 115.433594 C 4.328125 115.484375 4.320312 115.535156 4.3125 115.585938 C 4.304688 115.617188 4.292969 115.644531 4.289062 115.675781 L 0.210938 189.683594 C 0.207031 189.746094 0.210938 189.8125 0.21875 189.878906 L 6.191406 227.308594 C 6.199219 227.359375 6.226562 227.398438 6.242188 227.449219 C 6.25 227.480469 6.246094 227.511719 6.261719 227.542969 C 6.265625 227.550781 6.273438 227.554688 6.277344 227.5625 C 6.277344 227.574219 6.277344 227.585938 6.285156 227.59375 L 36.441406 285.078125 C 36.496094 285.179688 36.566406 285.265625 36.648438 285.34375 L 72.019531 316.636719 C 72.078125 316.703125 72.140625 316.757812 72.210938 316.804688 L 113.113281 344.390625 C 113.226562 344.46875 113.355469 344.515625 113.488281 344.539062 L 177.660156 354.523438 L 177.667969 354.523438 C 177.667969 354.523438 177.671875 354.523438 177.671875 354.523438 C 177.675781 354.523438 177.675781 354.527344 177.683594 354.527344 C 177.730469 354.535156 177.777344 354.539062 177.824219 354.539062 C 177.824219 354.539062 177.824219 354.539062 177.828125 354.539062 C 177.890625 354.539062 177.953125 354.53125 178.015625 354.519531 C 178.015625 354.519531 178.015625 354.519531 178.019531 354.515625 C 178.019531 354.515625 178.023438 354.515625 178.023438 354.515625 C 178.023438 354.515625 178.023438 354.515625 178.027344 354.515625 C 178.027344 354.515625 178.027344 354.515625 178.03125 354.515625 C 178.035156 354.511719 178.039062 354.511719 178.042969 354.511719 C 178.042969 354.511719 178.042969 354.511719 178.046875 354.511719 C 178.046875 354.511719 178.050781 354.507812 178.050781 354.507812 L 178.054688 354.507812 C 178.054688 354.507812 178.058594 354.507812 178.058594 354.507812 C 178.058594 354.507812 178.058594 354.503906 178.0625 354.503906 C 178.0625 354.503906 178.0625 354.503906 178.066406 354.503906 C 178.066406 354.507812 178.066406 354.503906 178.070312 354.503906 C 178.074219 354.5 178.074219 354.5 178.078125 354.5 L 282.941406 323.832031 C 282.976562 323.820312 283 323.78125 283.035156 323.765625 C 283.136719 323.71875 283.214844 323.660156 283.296875 323.582031 C 283.332031 323.550781 283.386719 323.542969 283.414062 323.503906 L 347.207031 239.304688 C 347.308594 239.171875 347.355469 239.015625 347.375 238.859375 C 347.378906 238.84375 347.394531 238.828125 347.394531 238.808594 Z M 345.601562 238.015625 L 318.011719 244.996094 L 350.265625 169.1875 Z M 233.644531 227.277344 L 131.976562 191.472656 L 208.65625 136.214844 Z M 208.660156 133.234375 L 132.195312 83.179688 L 231.613281 54.71875 Z M 207.566406 134.726562 L 130.925781 189.957031 L 130.925781 84.558594 Z M 129.078125 190.277344 L 42.101562 147.554688 L 129.078125 84.65625 Z M 147.914062 292.699219 L 65.003906 246.203125 L 129.378906 193.464844 Z M 131.203125 193.164062 L 233.085938 229.039062 L 149.820312 292.824219 Z M 234.203125 230.511719 L 239.574219 306.785156 L 151.484375 293.875 Z M 235.386719 226.636719 L 210.445312 135.742188 L 295.269531 144.226562 Z M 296.449219 145.742188 L 315.261719 245.148438 L 236.582031 228.132812 Z M 316.769531 243.1875 L 298.171875 144.90625 L 350.324219 164.324219 Z M 296.582031 141.335938 L 235.101562 54.777344 L 315.285156 72.175781 Z M 295.03125 142.34375 L 210.394531 133.878906 L 233.324219 55.457031 Z M 131.214844 81.539062 L 145.613281 11.332031 L 230.417969 53.136719 Z M 129.308594 81.640625 L 64.257812 59.875 L 143.617188 11.859375 Z M 128.003906 83.152344 L 41.820312 145.476562 L 62.722656 61.308594 Z M 39.792969 145.976562 L 6.554688 115.703125 L 60.386719 63.054688 Z M 61.246094 59.632812 L 13.953125 105.882812 L 67.832031 35.890625 Z M 39.210938 147.949219 L 7.949219 222.734375 L 6.171875 117.847656 Z M 40.066406 150.695312 L 62.089844 244.9375 L 8.335938 226.605469 Z M 41.65625 149.394531 L 128.304688 191.953125 L 63.929688 244.691406 Z M 146.789062 294.1875 L 73.488281 314.847656 L 64.53125 248.0625 Z M 148.691406 295.574219 L 176.003906 351.980469 L 75.75 316.132812 Z M 178.171875 352.210938 L 150.777344 295.640625 L 238.199219 308.457031 Z M 241.371094 306.03125 L 236.011719 229.898438 L 314.355469 246.84375 Z M 314.042969 249.472656 L 282.1875 321.78125 L 242.433594 307.550781 Z M 317.09375 247.132812 L 344.152344 240.289062 L 286.703125 316.105469 Z M 298.070312 142.894531 L 316.578125 74.464844 L 349.96875 162.214844 Z M 239.851562 11.703125 L 312.753906 69.734375 L 234.003906 52.644531 Z M 176.175781 2.332031 L 225.527344 9.050781 L 152.5625 9.050781 Z M 238.105469 10.898438 L 232.234375 51.972656 L 148.914062 10.898438 Z M 63.582031 58.121094 L 70.742188 32.320312 L 137.710938 13.273438 Z M 2.054688 189.683594 L 4.71875 141.363281 L 5.953125 214.121094 Z M 38 284.066406 L 13.523438 237.417969 L 66.773438 309.53125 Z M 9.601562 228.992188 L 62.527344 247.039062 L 71.324219 312.582031 Z M 79.304688 319.363281 L 168.332031 351.199219 L 113.972656 342.738281 Z M 240.722656 308.902344 L 279.695312 322.855469 L 182.648438 351.238281 Z M 240.722656 308.902344 " fill-opacity="1" fill-rule="nonzero"/></g></g></g></g><g fill="rgb(20.779419%, 83.529663%, 81.568909%)" fill-opacity="1"><g transform="translate(95.744826, 280.874982)"><g><path d="M 4.566406 -188.066406 L 4.566406 -179.46875 L 76.839844 0.539062 L 110.152344 0.539062 L 182.691406 -181.347656 L 182.691406 -188.066406 L 135.945312 -188.066406 L 104.78125 -109.617188 L 93.765625 -73.34375 L 82.75 -109.617188 L 51.582031 -188.066406 Z M 4.566406 -188.066406 "/></g></g></g></svg>