<svg xmlns="http://www.w3.org/2000/svg" width="37.5" viewBox="0 0 37.5 37.5" height="37.5" version="1.0"><g><g><g><path d="M 0.140625 -12.660156 C 0.140625 -12.617188 0.183594 -12.601562 0.253906 -12.601562 C 0.4375 -12.601562 1.578125 -12.449219 2.269531 -10.222656 C 2.722656 -8.769531 2.960938 -7.375 3.214844 -5.921875 C 3.734375 -2.945312 4.667969 0 6.582031 0 L 10.109375 0 C 10.207031 0 10.25 -0.015625 10.25 -0.0546875 C 10.25 -0.183594 9.644531 -0.125 9.644531 -1.367188 C 9.644531 -4.300781 13.449219 -8.457031 13.574219 -11.039062 C 13.660156 -12.828125 12.378906 -14.308594 10.332031 -14.308594 C 9.628906 -14.308594 8.980469 -14.097656 8.601562 -13.675781 L 7.726562 -10.699219 C 7.699219 -10.617188 7.78125 -10.585938 7.839844 -10.644531 C 7.839844 -10.644531 8.417969 -11.179688 9.417969 -11.179688 C 10.769531 -11.179688 11.433594 -10.179688 11.433594 -9.023438 C 11.433594 -7.273438 10.503906 -5.609375 9.796875 -3.46875 C 9.390625 -2.226562 9.304688 -1.269531 8.980469 -1.269531 C 8.867188 -1.269531 8.570312 -1.410156 8.429688 -1.648438 C 7.894531 -2.550781 7.359375 -4.003906 6.851562 -6.1875 C 6.386719 -8.21875 5.933594 -14.308594 3.300781 -14.308594 C 2.804688 -14.308594 2.03125 -13.871094 1.339844 -13.421875 C 0.507812 -12.886719 0.308594 -12.773438 0.199219 -12.714844 C 0.167969 -12.703125 0.140625 -12.6875 0.140625 -12.660156 Z M 0.140625 -12.660156" transform="translate(4.25 23.92)"/></g></g></g><g><g><g><path d="M 5.160156 -3.085938 C 5.992188 -4.566406 6.34375 -6.148438 6.5 -7.78125 C 6.695312 -9.628906 7.386719 -12.125 9.402344 -12.125 C 10.234375 -12.125 11.871094 -11.195312 11.871094 -10.09375 C 11.871094 -8.402344 6.753906 -9.601562 6.753906 -6.851562 C 6.753906 -4.835938 13.222656 -3.410156 13.222656 -1.210938 C 13.222656 -0.847656 12.871094 -0.492188 12.433594 -0.492188 C 10.402344 -0.492188 8.347656 -4.453125 6.992188 -4.453125 C 6.246094 -4.453125 5.570312 -3.679688 5.160156 -3.085938 Z M 6.597656 -9.699219 C 6.613281 -10.222656 6.613281 -10.742188 6.613281 -11.277344 C 6.613281 -12.308594 5.640625 -14.308594 4.160156 -14.308594 C 2.988281 -14.308594 0.140625 -11.84375 0.140625 -9.164062 C 0.140625 -6.921875 2.242188 -5.101562 3.523438 -5.101562 C 4.355469 -5.101562 5.425781 -7.640625 5.1875 -8.429688 C 3.117188 -8.347656 1.070312 -10.09375 1.070312 -11.164062 C 1.070312 -11.574219 1.351562 -11.953125 1.988281 -11.953125 C 3.117188 -11.953125 6.148438 -10.121094 6.148438 -7.191406 C 6.148438 -4.414062 3.371094 -0.5625 2.183594 0.015625 C 2.101562 0.0546875 2.128906 0.253906 2.3125 0.210938 C 2.691406 0.125 3.582031 -1.351562 5.539062 -1.351562 C 7.148438 -1.351562 9.023438 0.210938 10.882812 0.210938 C 13.421875 0.210938 15.140625 -1.929688 15.140625 -3.707031 C 15.140625 -6.613281 9.332031 -7.289062 9.332031 -8.542969 C 9.332031 -8.671875 9.5 -8.710938 9.769531 -8.710938 C 10.164062 -8.710938 10.757812 -8.628906 11.335938 -8.628906 C 13.71875 -8.628906 14.800781 -9.898438 14.800781 -11.25 C 14.800781 -12.714844 13.660156 -14.308594 11.671875 -14.308594 C 9.105469 -14.308594 7.445312 -12.308594 6.597656 -9.699219 Z M 6.597656 -9.699219" transform="translate(17.967 23.92)"/></g></g></g></svg>