<svg xmlns="http://www.w3.org/2000/svg" xmlns:xlink="http://www.w3.org/1999/xlink" width="300" zoomAndPan="magnify" viewBox="0 0 375 374.999991" height="300" preserveAspectRatio="xMidYMid meet" version="1.0"><defs><g/></defs><g fill="rgb(0%, 0%, 0%)" fill-opacity="1"><g transform="translate(16.121211, 221.470032)"><g><path d="M 31.195312 0 L 75.828125 0 L 108.292969 -88.761719 L 59.726562 -88.761719 L 52.625 -37.914062 L 50.722656 -37.914062 L 52.75 -67.585938 L 44.890625 -88.761719 L -1.269531 -88.761719 Z M 31.195312 0 "/></g></g></g><g fill="rgb(0%, 0%, 0%)" fill-opacity="1"><g transform="translate(123.141671, 221.470032)"><g><path d="M 3.675781 0 L 46.15625 0 L 46.15625 -88.761719 L 3.675781 -88.761719 Z M 3.675781 0 "/></g></g></g><g fill="rgb(0%, 0%, 0%)" fill-opacity="1"><g transform="translate(172.974662, 221.470032)"><g><path d="M 3.675781 0 L 43.621094 0 L 43.621094 -18.765625 L 38.929688 -35 L 40.703125 -35 L 55.539062 0 L 93.960938 0 L 93.960938 -88.761719 L 54.144531 -88.761719 L 54.144531 -69.996094 L 58.710938 -53.765625 L 56.933594 -53.765625 L 42.097656 -88.761719 L 3.675781 -88.761719 Z M 3.675781 0 "/></g></g></g><g fill="rgb(0%, 0%, 0%)" fill-opacity="1"><g transform="translate(270.611808, 221.470032)"><g><path d="M 21.808594 0 L 66.445312 0 L 66.445312 -51.734375 L 86.734375 -51.734375 L 86.734375 -88.761719 L 1.523438 -88.761719 L 1.523438 -51.734375 L 21.808594 -51.734375 Z M 21.808594 0 "/></g></g></g></svg>